<?xml version="1.0" standalone="no"?>
<!DOCTYPE svg PUBLIC "-//W3C//DTD SVG 1.1//EN" "http://www.w3.org/Graphics/SVG/1.1/DTD/svg11.dtd" >
<svg xmlns="http://www.w3.org/2000/svg">
<metadata></metadata>
<defs>
<font id="IFCRAILROADBold" horiz-adv-x="1100" >
<font-face units-per-em="2048" ascent="1638" descent="-410" />
<missing-glyph horiz-adv-x="508" />
<glyph horiz-adv-x="0" />
<glyph horiz-adv-x="2048" />
<glyph unicode=" "  horiz-adv-x="508" />
<glyph unicode="&#x09;" horiz-adv-x="508" />
<glyph unicode="&#xa0;" horiz-adv-x="508" />
<glyph unicode="!" horiz-adv-x="790" d="M131 1353q169 154 309 23q114 124 304 -21l-1 -14q-100 0 -134 -25.5t-34 -107.5v-386q5 -45 55 -79q-55 -13 -56 -67q-1 -146 66 -236q-141 2 -202 111q-72 -100 -198 -114q60 112 60 249q-11 45 -71 61q79 24 71 106l1 162v193q0 82 -34 107.5t-134 25.5zM266 162 q0 78 51.5 133t122.5 55q68 0 118 -55t50 -131q0 -80 -50 -135.5t-120 -55.5q-72 0 -122 55.5t-50 133.5z" />
<glyph unicode="&#x22;" horiz-adv-x="732" />
<glyph unicode="#" horiz-adv-x="1492" />
<glyph unicode="$" horiz-adv-x="2200" d="M134 213v2q26 20 26 50q24 149 105 149h20q21 0 52 -26h2q5 18 10 18h32v-2q-34 -40 -34 -95v-34q0 -4 -4 -4h-2q-4 0 -4 4v14q0 103 -40 103q-33 0 -38 -95v-8q0 -48 30 -48v-4q-22 0 -32 -46q0 -5 -5 -78q4 -67 29 -67q52 13 52 99q2 0 2 32v24q0 4 18 6l2 -4 q-6 -24 -6 -44v-14q3 -48 24 -48v-4q-71 -71 -133 -71h-2q-59 0 -76 91q-4 100 -24 100h-4zM190 28v2h2q20 -16 44 -16q32 0 57 12q3 -8 14 -8q15 0 34 34q18 12 40 37h2q4 -25 24 -25v-12q-75 -78 -142 -78h-4q-50 0 -71 54zM214 474q0 4 20 6q31 23 31 62v107 q-6 48 -45 48v4q36 0 45 52v69q0 44 -43 72v2q78 -10 123 -10q224 12 255 12h40q4 -1 4 -4q-54 -47 -54 -137q0 -4 -4 -4h-6q-4 0 -8 42q-32 79 -85 79h-4q-70 0 -80 -93q7 -66 22 -66q29 0 40 30q4 30 8 30h6q3 0 10 -38q13 -19 43 -40q-47 -32 -47 -74v-10l2 -4l-4 -2h-10 q-2 0 -10 38q-11 24 -42 24q-22 -25 -22 -72v-16q0 -57 44 -89q18 -12 61 -12v-2q0 -1 -6 -6q-81 2 -121 2h-54q-62 0 -107 -4zM228 436q0 11 27 14q11 16 22 16h130q64 0 80 -12q17 -4 45 -4h4q4 -1 4 -4v-8q0 -4 -16 -14q-88 2 -131 2h-46q-54 0 -113 -4q-6 7 -6 14z M230 653v12q0 6 20 6q7 -10 7 -20l-2 -4q-25 2 -25 6zM230 854v12l2 4q13 0 23 -30l-5 -2zM261 115q0 112 26 112q0 2 2 2h4q0 -18 24 -18q4 2 6 2l2 -4v-12q-34 -18 -34 -40q-6 -78 -6 -82q2 -8 2 -17l-4 -2h-4q-15 0 -18 59zM267 287v2q4 95 30 95h2q24 -15 24 -38 q-26 0 -30 -77v-16l-2 -4q-24 0 -24 38zM351 241v20q0 3 6 6l-2 10v30q0 48 20 69h28q4 0 6 -18q-30 -40 -30 -95v-22l2 -14q-7 -4 -16 -4h-6q-8 3 -8 18zM357 153v18q0 5 32 8q0 -2 2 -2q-10 -33 -10 -64v-4q0 -4 -4 -4q-20 0 -20 48zM387 404v4q40 -2 60 -2h26q33 0 57 4 v-4q-24 0 -28 -38q2 -22 2 -38v-23q0 -7 -2 -18q5 -20 22 -20v-4q-20 -10 -20 -26v-78q0 -54 34 -54q35 0 46 66q2 19 2 38v24q0 29 -14 36q14 10 14 51v28q0 56 -20 56h-6v4q24 -4 54 -4q26 0 54 4v-4q-28 0 -28 -28v-75q0 -16 18 -24q2 0 2 -2q-20 -11 -20 -30v-48 q0 -69 -52 -90q-55 -24 -105 -24h-8q-58 0 -58 84v54q-4 28 -24 28v2q24 15 24 34v59q0 58 -30 58zM405 207v12h4v-12h-4zM407 583v12q0 45 18 64h8q20 0 28 -38l-4 -2h-4l-4 2q-18 -21 -18 -71q0 -11 4 -40q-28 29 -28 73zM411 779q0 59 46 81q29 2 49 2q22 0 50 -52v-4 q-23 20 -42 20h-4q-63 0 -73 -75v-22q0 -4 -4 -4h-6q-9 0 -16 54zM437 81v4h2q20 -8 34 -8h16q21 0 57 8q0 -4 14 -8q14 0 36 28q52 20 52 92v50q5 24 24 24v-6q0 -10 12 -16q2 -17 2 -20q-14 -8 -14 -24v-48q0 -75 -64 -99q-51 -22 -100 -22h-10q-45 0 -61 45zM481 597 q15 1 15 6l-3 24q0 29 39 60h2l32 -24v-6q-48 -37 -48 -72q2 -14 2 -22l-6 -4h-25q-6 0 -8 38zM498 743l4 2h4q12 -1 12 -6v-4l-2 -10q2 0 2 -2l-4 -2q-10 11 -16 22zM512 163v74q0 14 22 24q0 -24 24 -24l2 -4v-8q0 -2 -20 -14l-4 -14v-80h-6q-18 11 -18 46zM512 285v87 q0 6 50 8l2 -4v-12q0 -3 -24 -12q-4 -13 -4 -18v-55q0 -4 -4 -4q-14 0 -20 10zM572 364v10h4v-10h-4zM588 743q10 3 10 6v4q0 75 34 115h32l24 -2v-2q-66 -55 -66 -145q-18 -12 -26 -12q-3 0 -6 6v10zM612 703v2q27 0 34 54q0 60 91 119q55 24 100 24q131 0 177 -80 q11 -24 24 -87q23 -30 36 -30v-2q-24 -13 -38 -62q-11 -61 -36 -95q-58 -80 -163 -80q-129 0 -171 107q-7 12 -18 84q-6 24 -36 46zM614 661v2q0 4 18 10q5 -8 8 -22h-2q-1 0 -24 10zM648 303v69q2 6 12 6h2q4 -1 4 -4q-6 0 -12 -36q0 -22 18 -47v-6q-21 0 -24 18zM664 330 v10q0 64 103 74q46 0 84 -22h2q10 16 20 16q11 0 16 -10v-6h-6q-22 0 -22 -28q0 -26 -12 -36h-6l2 14v14q-10 40 -56 40q-35 0 -40 -34q0 -24 62 -53q10 -2 20 -2h8q5 0 18 4q0 -2 2 -2l-2 -10q0 -15 34 -32q28 -23 28 -54q0 -72 -116 -84h-12q-23 0 -65 24h-2 q-17 0 -34 -32l-4 -2h-2q-3 0 -6 6q20 59 20 80q-4 34 -4 38l4 2h4q3 0 14 -38q40 -60 91 -60h2q38 0 38 30v8q0 38 -56 52h-8q-8 0 -26 -4q0 2 -2 2l2 4v4q0 14 -47 30q-46 29 -46 57zM680 281v2h2q30 -23 67 -36l-2 -20v-6q26 8 38 8h6q48 -13 48 -46v-2q-22 8 -24 8h-8 q-13 0 -36 -8l-2 4v2l2 20q-59 23 -59 42q-32 7 -32 32zM690 514q55 -54 123 -54q54 -2 54 -6q75 21 111 54q52 57 62 109q6 46 30 74h6q19 -18 42 -24q0 2 2 2q6 -8 6 -18h-6l-8 6q-36 0 -56 -109q-40 -88 -121 -120q-36 -8 -40 -8v2q-8 -4 -22 -4h-8q-135 0 -175 96z M692 87q12 56 30 56h4q42 -20 45 -20q6 0 60 -6q22 0 34 16q62 28 62 78v16q24 -19 24 -50v-14q0 -4 -34 -12q-4 -6 -6 -20q23 2 26 4q0 -2 2 -2q-37 -52 -118 -52h-4q-29 0 -64 22q-3 0 -6 2q-11 0 -27 -30l-16 -7q-8 0 -12 19zM710 972q31 16 31 42q6 52 6 103 q0 64 -33 86v2q29 13 29 60q2 0 2 12q0 102 -29 113q-4 0 -4 4v2q69 -4 75 -4q13 0 70 4v-2q-30 -18 -30 -78v-30q0 -68 26 -83q-30 -30 -30 -84q4 -137 20 -137q16 -8 16 -10l-2 -4q-19 6 -60 6q-32 0 -85 -6zM724 211v4h4q13 -6 13 -22h-2q-4 0 -15 18zM724 924v8 q0 13 21 18q5 16 26 16h24q76 0 76 -16q8 -2 18 -8q15 0 26 22q16 0 54 -4q4 2 6 2q0 -16 25 -24q-3 -18 -8 -18q-35 4 -51 4q-27 0 -56 -6q-19 8 -64 8q-21 0 -95 -6zM724 1159v8q1 4 4 4q6 -9 6 -16h-6q-4 0 -4 4zM724 1352v10h4l4 -16h-2q-2 0 -6 6zM757 360v8 q9 16 22 16h24q34 -6 34 -30v-6l-2 -4q-14 4 -24 4q-12 0 -26 -12h-4q-24 17 -24 24zM769 757q0 -43 22 -52v-4q-20 -20 -20 -72v-2q0 -102 56 -137q12 -6 18 -6q40 0 68 77q12 33 12 68v6q0 47 -24 68q18 24 18 50v16q0 77 -56 111q-12 6 -20 6q-74 -28 -74 -129zM777 761 q0 70 48 107q14 4 34 4q14 0 36 -36l4 -14q-11 10 -30 16q-68 -24 -68 -127q-2 0 -2 -2q-19 0 -22 52zM779 629q0 61 24 68q0 -15 28 -32q-28 -18 -28 -76q0 -38 12 -77h-2q-34 41 -34 117zM831 1109q0 66 30 90h2q4 -15 22 -30q2 -3 2 -8q-30 -24 -30 -70v-12q0 -6 -2 -6 l2 -12q0 -30 4 -75l-4 -2h-2q-21 0 -24 125zM835 1288v2q0 74 12 74q4 0 36 4q8 -12 8 -28q-2 0 -2 -2q-6 4 -12 4q-18 -12 -18 -99q2 -29 2 -32h-2q-22 0 -24 77zM859 324l14 42l14 12h10l10 -2v4h2q8 -3 10 -32q0 -4 -22 -6q-4 -37 -14 -59h-2q-15 8 -16 14q1 16 4 16 q-2 4 -2 11h-2l-4 -2q0 2 -2 2zM865 1390q1 4 4 4q51 -8 86 -8q20 0 57 6q0 -2 2 -2q-2 -4 -4 -22q0 -29 72 -221l16 -48h2v42q0 47 -20 58q15 0 18 60q0 121 -14 121l-14 12v2q38 -2 46 -4q37 4 52 4q45 -6 77 -6q22 0 62 6l2 -4q-28 -12 -28 -72v-127q16 20 80 143l2 12 v12q0 18 -28 28v4q1 4 4 4q32 -6 62 -6q21 0 59 6l2 -4q-27 -18 -81 -125q-14 -20 -14 -32q0 -16 38 -26v-2q-6 0 -14 -28q10 -68 93 -199q2 0 2 -2v-4l-2 -4q-26 6 -69 8q-47 -2 -78 -8l-2 4q32 17 32 38v8q0 13 -54 127h-2q-36 -73 -36 -121q0 -38 28 -46q3 0 6 -6l-2 -4 q-26 6 -56 6h-24q-29 0 -59 -6q-49 10 -86 10q-10 0 -46 -4l2 20v4q0 39 -93 267v2h-2l-2 -32q0 -22 14 -38q-15 0 -20 -84q2 -14 2 -22v-32q0 -87 28 -87v-2q-2 0 -2 -2q-21 4 -46 4q-24 0 -46 -4v2q22 12 22 18q10 19 10 57v84q0 51 -22 70q18 18 18 62v79q0 36 -32 48 q-2 0 -2 2zM885 279v2q1 4 4 4l2 -4v-2h-6zM897 408v4q64 -4 87 -4q156 4 186 4v-2q-32 -36 -32 -86v-8q0 -5 -4 -5q-12 87 -44 87q-14 -6 -14 -48v-2q0 -59 22 -59v-4q-16 0 -20 -26v-62q0 -34 56 -44q2 0 2 -2v-2q-59 2 -68 2q-66 0 -145 -10v4q69 11 69 50v64 q0 18 -29 26v2q33 0 33 83q-4 28 -10 28h-4q-24 0 -49 -89h-4l-4 2l2 25v14q-11 58 -30 58zM905 661v6q2 0 6 2q4 -7 4 -10h-2zM933 93q0 26 34 26q23 8 37 22q11 0 66 2q2 0 48 -2q1 -8 50 -20l6 -12v-4q-3 0 -10 -4q-17 0 -76 2q-66 0 -153 -12q0 2 -2 2zM939 269 q0 55 30 111h11q2 0 6 -6v-14q0 -65 -31 -65h-4v-12l16 -12v-6q0 -4 -4 -4h-18q-5 0 -6 8zM945 1071v64q0 54 20 54q17 -39 17 -42q-13 -9 -13 -56v-59q0 -17 2 -50l-4 -2q-22 0 -22 91zM973 251v2q1 4 5 4h2q4 0 4 -4v-10q0 -4 -4 -4q-7 2 -7 12zM1020 1358q11 6 24 6 q0 -2 2 -2q-2 -27 -2 -40q0 -20 34 -113l-4 -2h-2q-7 0 -50 139q-2 3 -2 12zM1032 806q22 -19 32 -85h-2q-18 0 -30 85zM1046 928q6 18 6 24v12q0 6 34 6q96 -6 96 -20l10 -2l16 18h39q67 0 78 -18q16 -1 16 -6v-14q0 -3 -8 -8q-38 6 -62 6h-16q-26 0 -65 -6h-4 q-38 10 -82 10q-22 0 -54 -8zM1074 892v2l4 2q96 -8 138 -8q26 0 95 6q-4 -19 -4 -22q0 -32 56 -121l84 -150h2q0 9 2 44q-6 54 -30 54v4q25 6 26 54q0 121 -18 121q0 6 -26 14v4q40 -2 61 -2h26q21 0 64 2v-4q-52 -6 -52 -52v-85q0 -36 30 -52h2v-4q-28 -27 -28 -102v-63 q0 -40 36 -52q20 -1 20 -8l-2 -4q-71 10 -135 10h-8q-39 -2 -70 -2q3 7 6 18q0 44 -130 239q-18 34 -25 38v-42q0 -16 21 -32v-2q-25 0 -31 -74q0 -139 24 -139q9 -10 25 -10v-2q-2 0 -2 -2q-35 4 -71 4h-10q-36 0 -70 -4v2q0 3 28 10q24 20 24 58v95q0 48 -34 64v2 q30 20 30 82q0 93 -20 93q-11 7 -38 16zM1076 1187l4 2q10 -11 10 -32h-4q0 3 -10 30zM1082 1352v4h4v-8q-4 0 -4 4zM1084 344v10q0 26 6 26h14q5 0 14 -28q-8 0 -10 -49v-4l-2 -4q-22 0 -22 49zM1086 199v60q0 15 22 22q0 -18 34 -30q10 6 14 6l4 -6v-6h-2q-10 0 -10 4 q-38 -16 -38 -24v-52l-2 -4q-22 9 -22 30zM1088 854v8q0 2 8 6q26 0 26 -26v-4q-2 0 -2 -2q-32 3 -32 18zM1096 426v6q0 16 28 16q15 10 22 18h16q77 0 77 -14q12 -6 30 -10v-12q0 -3 -8 -8q-43 4 -75 4h-4q-27 0 -84 -4zM1132 1251q0 -32 20 -54q-18 -27 -18 -112v-42 q0 -63 28 -63q0 -4 8 -4q20 0 26 69v126q0 12 -22 34q22 18 22 36v81q0 68 -36 68q-28 -9 -28 -56v-83zM1140 1257v69q0 36 6 36h6q10 0 30 2q4 -8 4 -22q-22 0 -22 -67v-72h-2q-22 10 -22 54zM1142 1051v28q0 94 20 118v2h4q6 -34 22 -34q-22 -42 -22 -106v-37q0 -10 2 -34 q-2 0 -2 -2q-24 0 -24 65zM1144 287v2q22 13 22 51q40 72 111 72h24q75 0 102 -68q0 -43 28 -61q-18 -12 -32 -74q-33 -68 -96 -68h-14q-86 0 -115 76q-9 70 -30 70zM1146 271v4h2q5 0 6 -10h-2q-3 0 -6 6zM1146 318v4q0 41 16 60h20v-2q-28 -33 -28 -71l-4 -2h-2zM1192 165 v2h2q42 -36 105 -36q0 -6 16 -8q5 0 28 18q25 0 64 64q16 70 30 70q20 -18 20 -42q-10 0 -28 -74q-42 -66 -98 -66h-20q-84 0 -119 72zM1196 619q0 72 31 72h4q0 -11 22 -26v-10q-26 -13 -26 -30q-4 -19 -6 -50q2 -21 4 -87q-2 0 -2 -2q-27 0 -27 133zM1206 731v10h2 q23 -28 23 -38q-25 13 -25 28zM1243 243q0 -76 46 -90h4q35 0 46 82v10q0 27 -14 42q10 16 12 39q0 58 -44 76h-4q-36 0 -46 -72v-14q0 -15 12 -27v-2q-12 -16 -12 -44zM1251 245q0 30 18 42h6v-8q0 -21 22 -26v-2q-22 -13 -22 -48l4 -36h-2q-26 26 -26 78zM1251 318v12 q0 52 40 52h18q8 -7 16 -30q-2 0 -2 -2q-7 4 -12 4q-36 -19 -36 -63q-21 0 -24 27zM1283 1024q0 36 26 99h6q3 -12 18 -42q-20 -41 -28 -95h-2q-20 9 -20 38zM1289 1223v93q0 44 10 44l40 6q2 -4 4 -20q-30 -10 -30 -60v-21q0 -3 -20 -42h-4zM1317 862q3 2 26 4l2 -4v-6 q0 -3 -6 -22l6 -32q-26 35 -28 60zM1349 922v10q0 13 20 18l14 16q21 0 32 2q39 -2 81 -10v10h4q0 -5 20 -30v-16l-2 -4q-23 6 -81 10q-48 -2 -86 -10zM1349 1344v20h4l2 -10v-14h-2q-4 0 -4 4zM1355 426v2q12 22 12 36q-2 0 -2 2q4 0 4 4q40 2 60 2q110 0 135 -18 q32 -5 32 -20v-8q0 -4 -4 -4q-89 10 -141 10h-6q-23 0 -90 -6zM1375 1231v2q3 16 68 125q7 2 49 8l2 -4v-16q-31 -23 -73 -109q-12 -20 -14 -20q-19 0 -32 14zM1401 1177v6q1 4 4 4q34 -11 34 -14v-8q-14 -14 -14 -24v-8q0 -18 41 -109q-58 96 -65 153zM1411 344h2 q22 -23 22 -45v-6h-2q-22 13 -22 51zM1415 852v8q0 3 6 6h6q5 0 10 -24q-2 0 -2 -2q-17 5 -20 12zM1427 408v4h2q64 -6 87 -6q21 0 44 4q0 -2 2 -2q-4 -10 -4 -16q0 -23 60 -131q38 100 38 141l-2 10q40 -2 61 -2h40q17 0 50 2v-2l-22 -12q-6 -10 -6 -26v-61q0 -41 22 -58 v-4q-22 0 -22 -40v-82q0 -42 28 -57v-2q-94 33 -163 33l-2 4q46 9 46 46v80q-5 32 -20 32v2q20 18 20 44v25h-2q-43 -68 -52 -133l-14 -68q-16 0 -22 40q-28 88 -98 169v-37q0 -17 18 -28q-15 0 -18 -52q0 -98 26 -98h2v-4q-45 10 -83 10h-10v4q33 0 33 42q0 9 -2 26 q2 21 2 32q0 31 -23 46q19 16 19 45v50q0 30 -35 30zM1429 651q2 20 6 20q6 -2 6 -12v-4q0 -4 -4 -4h-8zM1439 368v8q0 3 6 6h8v-18q0 -4 -4 -4h-2q-3 0 -8 8zM1443 93v8q0 4 29 10q4 12 8 12q62 -8 62 -22q18 -8 18 -10v-14q0 -5 -4 -5q-37 11 -109 15q-4 5 -4 6z M1504 1328v56q0 16 20 16h70q11 0 16 -10v-66q0 -14 -14 -14h-78q-14 0 -14 18zM1506 233q0 35 20 38v16q-20 0 -20 18v11h2q13 -13 38 -53v-4l-16 18v-10q2 -20 20 -20v-12q-18 -11 -18 -28l-2 -18q2 -28 2 -54h-8q-18 0 -18 98zM1510 761v51q0 52 12 52q3 0 48 2q0 6 4 6 q18 -21 18 -32q-3 0 -6 6q-52 0 -52 -59v-74h-2q-22 11 -22 48zM1514 540v57q0 74 26 94q2 -8 28 -26v-8q-30 -24 -30 -105v-54l-2 -4q-18 0 -22 46zM1518 1322h38q-2 7 -2 22h-2q0 -16 -10 -20q-3 0 -8 8v16q0 4 4 4q2 -4 2 -8h2q0 8 4 14q-4 0 -4 10h-2q0 -8 -4 -8l-2 4v8 q0 11 8 14q8 -2 8 -18h2q0 14 4 20h-4q-11 0 -28 -2q-4 2 -6 2q4 -7 4 -16q0 -14 -4 -14q4 -7 4 -12v-12q0 -6 -4 -12zM1520 1286v10q0 4 4 4h82q12 0 12 12v52q1 4 4 4h4q3 0 8 -8v-80q-3 -9 -14 -9h-86q-14 0 -14 15zM1560 896v4q94 -6 147 -6q81 0 293 8l2 -4 q-56 -50 -56 -145l2 -14l-4 -2h-2q-5 0 -15 69q-22 72 -56 72q-24 0 -24 -66v-33q0 -78 36 -78v-2q-34 -23 -34 -40v-107q0 -53 70 -68q27 -4 27 -8v-4q-76 2 -115 2h-66q-72 0 -163 -8l-2 4l66 16q45 20 45 64v107q0 25 -47 40v4q49 0 49 78q4 0 4 51v10q0 35 -23 40 q-35 0 -74 -143h-12l-4 2q6 15 6 44v8q0 69 -50 105zM1560 1322h16l-2 4v10q0 14 4 22q-4 7 -4 16v10l2 4h-16l2 -4v-18q0 -5 -2 -8q2 -5 4 -20q0 -4 -4 -16zM1570 376q7 4 12 4h12v-4q0 -20 -4 -20q2 -14 18 -55q-20 28 -38 75zM1580 1322h6q12 0 18 38q-3 0 -8 22 q-7 6 -14 6q6 -7 6 -14v-4q0 -6 -4 -12q4 -1 4 -4v-14q0 -16 -8 -16v-2zM1612 125l14 -2q10 70 28 134h4q20 -3 20 -28v-4l-24 -108q-22 0 -22 -14v-2q0 -7 20 -10v-4q0 -4 -4 -4q-34 4 -34 34zM1612 420q0 24 26 24q34 6 67 20q12 2 28 2h128q47 0 95 -14q19 0 26 -18 q2 -4 2 -6l-10 -4q-87 2 -133 2h-52q-73 0 -135 -6q-3 2 -10 2q0 -4 -4 -4h-12l-14 -2zM1618 699q5 32 12 32v2q12 76 52 131h19q8 0 8 -34v-2q-29 -33 -53 -115q-2 -14 -4 -18q2 0 2 -2l-6 -4h-24q-4 0 -6 10zM1654 60v2q0 16 32 21q0 1 6 6q30 0 125 -35q0 -4 22 -18v-20 h-2q-98 36 -175 36zM1664 277v4q9 20 12 20v-4q0 -11 -12 -20zM1676 655v10q0 6 20 6q7 -7 7 -14v-10l-2 -4q-23 7 -25 12zM1785 129v86q0 28 28 28q3 -11 22 -28v-8q0 -2 -20 -10q-6 -9 -6 -36v-76l-2 -4q-18 0 -22 48zM1785 316v60q0 4 38 4q-18 -27 -18 -56v-2 q0 -5 4 -39v-24h-2q-18 0 -22 57zM1813 322q0 80 104 92q50 0 83 -34h2q12 24 16 24h4q15 0 18 -20q0 -4 -20 -6q-8 0 -12 -75q-6 -18 -10 -18h-2l-4 2q4 12 4 33q0 54 -48 68q-4 2 -9 2q-42 -11 -42 -42q0 -30 63 -83q20 -8 32 -8q14 2 16 2v-22q0 -16 38 -58 q24 -46 24 -86q0 -64 -42 -85q-15 -6 -26 -6q-68 0 -121 75l-14 4h-6q-6 -1 -22 -27h-6q-4 0 -4 4v4q0 7 18 73v26q0 17 -4 42l4 2h2q8 0 14 -46q58 -127 111 -127h12q12 11 12 34q0 74 -65 107q-6 0 -14 2l-12 -2l-2 4v8q0 2 2 2q0 17 -40 44q-54 49 -54 91zM1835 249v2 q18 -18 62 -56v-14q0 -4 -4 -4q-53 49 -58 72zM1843 24q7 48 24 48h2q4 0 48 -50q47 -28 87 -28q64 0 74 91v8q0 19 -10 62q32 -42 32 -85v-38q-12 -78 -74 -78q-72 0 -125 72q-7 6 -14 6q-6 -4 -18 -26h-18q-8 3 -8 18zM1855 787v21q4 58 12 58h14q28 -19 28 -42 q-14 4 -14 6q-16 -8 -16 -63v-34l2 -20l-4 -2q-22 6 -22 76zM1857 554v103q5 25 30 30q0 -8 30 -22l6 -8q-42 -23 -42 -36v-111h-2q-22 15 -22 44zM1869 173q4 2 6 2q14 0 20 -52q3 0 6 -14h-4q-28 52 -28 64zM1907 344v8q0 20 32 30q30 0 47 -44q0 -2 -2 -2q-19 6 -22 6 q-20 0 -31 -29v-6h-2q-22 23 -22 37zM1913 163v2h14q23 0 53 -50q2 -4 2 -6h-2q-19 16 -36 18q-4 -2 -25 -4q0 6 -2 6q2 15 4 20q0 3 -8 14zM1950 727q6 0 6 8q0 11 -2 28q11 107 44 107q0 2 20 2h14q4 -1 4 -4v-10q-58 -57 -58 -135l2 -12v-16q0 -3 -6 -6h-16q-8 0 -8 38z M2010 275v4q10 41 10 67v6q11 18 16 20l14 -2l2 4q22 -10 22 -42q-2 0 -2 -2l-14 2h-6q-9 0 -10 -61q-10 -34 -14 -34h-8q-4 0 -4 4v8l2 12q-2 3 -2 12l-4 -2zM2020 225q0 5 18 8h2q0 -7 2 -10q-2 -11 -2 -18v-2h-4q0 3 -16 22z" />
<glyph unicode="%" horiz-adv-x="1756" />
<glyph unicode="&#x26;" horiz-adv-x="3658" d="M-9 291q8 0 21 13q12 14 12 34q0 10 -6 29v1q0 10 31 35q9 9 9 16q0 11 -18 39q-5 10 -5 17v2q0 16 42 41q24 9 33 9v2q-91 8 -91 15v57q0 17 17 36q4 8 4 14v2q-17 12 -19 15v2q0 4 35 12l2 2q-5 2 -22 5q-1 2 -7 40q-10 39 -10 56q0 5 20 41q9 18 9 29q-4 13 -4 16v1 q0 24 49 40q0 4 -8 5q-6 0 -47 -14q-6 -2 -10 -2h-4q-5 0 -5 6v56q0 34 37 79q13 20 13 26v2q0 13 -32 47q-14 17 -14 19q0 12 60 17q4 7 6 8l2 -6q16 0 80 24q12 3 69 13v1q-30 5 -76 7q-25 7 -33 14l-1 2v2q0 2 13 10q23 -4 80 -16q13 -2 68 -7q1 0 12 -15q36 14 40 14h1 q21 0 196 5v-1q0 -2 -34 -35l-9 -12h1q8 0 52 34q24 17 37 17h102q23 0 87 -20q25 -6 40 -6q25 0 106 22q21 4 36 4h160q3 0 7 -1q2 1 6 1h7q221 0 290 -31q8 0 38 -20h3q12 1 13 4v2q0 5 -32 31q-3 4 -3 6v1q0 3 13 5q397 -3 831 -6q62 -1 135 -1q4 -1 4 -2q-9 -10 -9 -11 h1q1 -1 2 -1q5 0 78 20q6 1 12 1h127q33 0 181 -10q13 -1 33 -1q31 0 58 5q9 0 80 -25q5 -1 9 -1v1q-4 5 -30 27l-1 2l2 2h12q19 0 119 5q42 0 221 3h14q6 0 13 1q21 0 30 -24q10 -11 16 -32q10 -50 17 -50q30 21 48 21q0 1 2 1v10l1 1q14 -12 20 -12q9 6 25 6h17 q11 0 24 -1v2l-1 5q4 0 9 -6h1l12 4h8q5 0 19 -5v-1q0 -16 -34 -25q-16 -6 -16 -24q0 -13 20 -42q7 -11 7 -19v-1q0 -10 -16 -42l-4 -17q0 -1 -1 -1h-1q-5 0 -40 31q-6 6 -9 6q-1 0 -2 -2v-2q0 -13 58 -81q15 -22 15 -30t-19 -83v-7q0 -10 17 -60q2 -7 2 -14v-61 q0 -6 -8 -33q0 -11 -9 -11q-22 -8 -25 -11v-1q3 -4 38 -17l4 -4v-44q0 -24 -31 -78q-9 -23 -9 -36v-3q0 -13 30 -43q10 -13 10 -21v-40q-11 -15 -34 -15q-38 0 -75 21q-9 7 -11 17h-2q-32 -27 -47 -42q-11 -16 -35 -32q-16 -10 -40 -28q-18 -8 -38 -8q-10 0 -33 6h-18h-123 q-19 -8 -39 -8q-9 0 -69 8q-5 0 -47 5q-24 3 -54 3h-1q-56 0 -192 -17q-38 -3 -95 -5q-56 0 -66 17v5q0 10 17 40h-1q-17 0 -68 -30q-34 -18 -61 -18h-444q-33 0 -111 21q-30 5 -45 5q-29 0 -116 -21q-27 -5 -51 -5h-331q-32 0 -166 -14h-24q-27 0 -99 12q-14 2 -32 2h-135 q-30 0 -69 19q-16 5 -28 5v1q52 28 68 43h-3q-31 -8 -129 -51q-44 -17 -54 -17h-83q-24 0 -98 13q-11 1 -25 2q-28 0 -181 -14q-25 -1 -41 -1q-57 17 -118 17q-23 0 -97 -7h-2q-10 11 -22 28zM23 1150v1q19 10 80 61q13 10 23 14v-1q-2 -2 -2 -4v-3q0 -12 41 -24 q13 -1 18 -1q11 1 16 1v-2q-91 -30 -104 -30v1l2 16q-2 0 -16 -20q-14 -2 -58 -9zM195 473h90v58q-14 0 -14 17v3q3 38 5 38h63q4 0 6 -42v-8q0 -8 -14 -8h-4v-58h106v58h-2q-11 0 -13 8q-3 0 -17 129q0 47 19 63q-16 0 -27 31q-5 14 -16 128q0 9 8 9h12v63h-160v-63h13 q7 0 7 -11q-11 -101 -14 -113q-11 -43 -30 -43q18 -16 18 -50q-10 -103 -17 -134q-3 -17 -17 -17h-2v-58zM288 695q6 52 20 160l2 1q2 -15 18 -162h-1h-37q-2 0 -2 1zM444 731q21 -8 25 -56v-107q0 -36 -7 -36q-3 -1 -9 -1h-5v-58h99v58h-5q-15 0 -15 13q-1 16 -1 61v130 q0 1 1 1q3 0 9 -32q50 -212 55 -231h89v196q0 32 16 54q7 7 9 7v1q-6 1 -13 10q-12 22 -12 54v59q0 45 8 45h4h9v63h-99v-63h10q11 0 11 -21v-188q0 -2 -1 -2q-2 4 -27 114q-2 3 -39 160h-108v-63h10q11 0 11 -24v-83q0 -33 -16 -55zM721 795q0 -2 2 -2h45v1q0 103 9 103 q3 4 13 4h6q1 0 1 -2v-110q0 -29 -13 -50q-9 -8 -12 -8q13 -7 20 -25q5 -20 5 -33v-115q0 -27 -8 -27h-2h-14v-58h118v58h-11q-13 0 -13 15q-1 12 -1 24v98q0 53 25 63h1q-7 0 -17 15q-9 15 -9 41v112q1 2 2 2h4q20 0 20 -16q5 -61 5 -92h47v104q0 20 -1 64h-221l-1 -1v-34 v-131zM949 735q13 -7 19 -24q3 0 7 -69q4 -39 11 -71q11 -39 24 -61q31 -48 69 -48q50 0 82 69q8 18 18 65q7 40 10 105q5 22 16 30q1 2 4 2q-13 9 -18 20q-4 6 -9 62q-11 59 -23 86q-31 71 -80 71q-33 0 -60 -38q-15 -20 -31 -71q-8 -32 -15 -100q-6 -18 -16 -24 q-2 -3 -8 -4zM1052 704q1 12 12 23q6 5 8 5v1q-6 0 -16 14l-4 11v4q0 105 12 126q6 9 13 9h2q15 0 20 -34q3 -16 3 -93v-12q0 -10 -16 -23l-4 -1v-1q9 0 19 -22q1 -1 1 -4q0 -35 1 -90q0 -58 -16 -76q-4 -4 -9 -4h-1q-17 0 -21 40q-4 60 -4 127zM1207 730q9 -3 18 -22 q6 -25 6 -35v-101q0 -40 -7 -40q-3 -1 -9 -1h-5v-58h99v58h-5q-15 0 -15 13q-1 11 -1 35v156q0 1 1 1q2 0 11 -42l53 -221h89v200q0 24 14 50q9 7 11 7v1q-24 9 -25 65v68q0 35 9 35h12v63h-99v-63h10q11 0 11 -23v-186q0 -2 -1 -2q-2 0 -17 69q-2 6 -49 205h-1h-107v-63h10 q11 0 11 -27v-77q0 -37 -16 -58q-1 0 -8 -7zM1630 731q13 -7 19 -21q6 -11 6 -47v-105q0 -31 -10 -31h-10q-1 0 -1 -1v-53q0 -1 1 -1h104v54q0 1 -6 2q-8 5 -8 42v34q0 2 20 60h1q1 0 12 -57q11 -50 11 -66q0 -9 -6 -14h-6v-55h115v57q-6 3 -13 12q-15 30 -37 152v2 q0 25 17 36q-12 3 -20 12t-14 31q-5 21 -7 36q26 90 56 90h5q1 0 1 1v59q0 2 -1 2h-101q-1 -1 -1 -2v-59l8 -2l2 -2v-5q-2 -8 -40 -118h-2v97q0 29 13 29h4v62h-107q-1 -1 -1 -2v-59q0 -1 1 -1h10q10 0 10 -20v-10v-84q0 -47 -25 -55zM1880 732q20 -14 20 -24q5 -10 5 -22 v-129q0 -28 -11 -28h-10v-55h104v55h-2q-11 0 -11 25v97q0 1 1 1h17q2 0 18 -83q2 -10 2 -19v-2q0 -18 -11 -18v-56h103v54q-11 6 -16 24q-12 38 -35 158v1q22 24 31 70q4 23 4 51v8q0 57 -33 96q-27 26 -56 26h-116v-61h5q14 0 14 -11q2 -7 2 -18v-93q0 -36 -24 -47h-1z M1975 733v108v60h1q26 0 32 -47q2 -17 2 -23q0 -82 -26 -97q-4 -2 -8 -2zM2122 900q15 0 19 -28q21 -86 21 -105q0 -24 -16 -36q19 0 34 -39q15 -69 20 -101v-29q0 -34 -10 -34h-12v-55h114v55h-9q-13 0 -13 19q-1 8 -1 19v26q0 12 18 104q4 17 18 31q7 4 13 5 q-18 11 -18 38q0 24 20 116q4 14 13 14h4q1 0 1 1v59q0 1 -1 1h-85v-61h9q5 0 5 -5v-1q0 -10 -19 -136q-1 -2 -2 -2q-1 1 -19 95q-5 34 -5 40v1q0 8 6 8h7v61h-110q-2 0 -2 -1v-60zM2355 473h188v176h-46q-1 0 -1 -1q0 -67 -6 -102q-5 -15 -17 -15q0 -1 -4 -1h-8 q-10 0 -10 25v135q0 20 14 37q3 3 10 7q-7 0 -18 17q-6 16 -6 24v100q0 29 10 29h14q1 0 1 1v61h-121v-61q0 -1 1 -1h14q10 0 10 -27v-92q0 -37 -22 -50l-3 -1q25 -13 25 -55v-120q0 -22 -5 -28q-4 -2 -7 -2h-13v-56zM2549 735q13 -7 19 -25q4 -10 6 -61q5 -47 12 -77 q9 -32 20 -55q32 -55 72 -55h2q40 0 72 51q15 30 23 67q13 63 13 114q0 16 13 33q7 6 9 6v1q-6 0 -17 14q-6 8 -9 42q-5 54 -20 97q-12 33 -29 55q-26 30 -57 30q-36 0 -66 -48q-10 -18 -23 -56q-9 -36 -15 -85q0 -36 -20 -46q-4 -2 -5 -2zM2651 704q0 11 16 25q5 3 5 4 q-8 0 -18 17q0 3 -3 8l1 2q0 73 7 114q6 23 18 23h1q23 0 23 -89v-50q0 -10 -15 -23l-4 -1q14 -8 19 -26q1 -64 1 -88q0 -83 -24 -83h-1q-16 0 -20 33q-6 65 -6 134zM2799 901h1q13 0 17 -10q8 -31 19 -115l1 -6q0 -27 -18 -39q15 0 27 -28q6 -12 17 -92q20 -130 22 -138h61 q29 215 32 229q13 30 28 30q-18 12 -18 36v6q9 90 18 119q3 8 14 8h5v62h-87v-62h5q8 0 8 -8v-7q0 -9 -23 -172h-2q-2 0 -7 38q-21 128 -21 140q0 9 6 9h8v62h-113v-62zM3126 463h33v9q0 9 13 9h55q21 0 27 -18q7 18 27 18h74q12 0 12 -7v-11h31v91h-31v-11q0 -8 -13 -8h-75 q-17 0 -25 18q0 -9 -17 -16q-2 -2 -5 -2h-59q-14 0 -14 10v9h-33v-91zM3126 573h34v7q0 9 13 9h18h25q31 0 38 -19h1q0 8 15 16q10 3 20 3h48q28 0 28 -5v-11h32v76h-31q-1 0 -1 -1v-6q0 -8 -11 -8q-3 -1 -13 -1h-89q-1 0 -1 1q9 4 145 48l1 2v67h-111q-13 0 -27 11 q-5 6 -5 8h-1q0 -8 -15 -15q-11 -4 -21 -4h-36q-22 0 -22 8v9h-34v-77h34v5q0 11 9 11q2 1 8 1h100q1 -1 1 -2l-152 -50v-83zM3126 783h34v8q0 9 16 9h45q29 0 33 -19h2q0 11 19 18q8 1 20 1h55q18 0 18 -9v-8h31v81h-31q0 -11 -25 -11h-17q-1 0 -34 15v2q50 14 67 18h1 q8 0 8 -8v-2h31v88h-33q0 -15 -64 -30q-2 -2 -27 -8q-14 0 -20 12q-1 0 -4 -9q-6 -11 -22 -16q-10 -4 -20 -6q-49 21 -49 43v6h-34v-80h34v4q0 4 2 4h3q1 0 66 -31v-2h-43q-27 0 -27 7q-1 0 -1 2v4h-34v-83zM3298 229v1q1 0 6 -1q33 0 68 33q13 8 41 39q0 1 39 38 q6 -14 27 -22q41 -16 67 -16q16 0 30 9q1 0 1 -1v-1q-17 -13 -20 -13q-57 -12 -127 -40q-73 -29 -110 -29q-7 0 -22 3zM3341 1219v2q17 7 29 7h12q38 0 136 -55q45 -21 59 -22l16 -3v-2q-3 0 -12 1q-10 0 -17 -3q-16 7 -19 7q-1 0 -1 -1t2 -4v-2h-35q-18 0 -29 -6 q-18 16 -22 16h-1v-1q2 -3 3 -7q0 -8 -15 -10q-8 -2 -23 -9q-9 12 -26 55q-11 23 -15 30q-15 10 -28 10z" />
<glyph unicode="'" horiz-adv-x="349" d="M34 1423l4 6q86 28 136 -36q17 27 39 37.5t71 13.5q-13 -35 -18 -56t-14.5 -120.5t-86.5 -196.5l-64 32q11 155 -10.5 226t-56.5 94z" />
<glyph unicode="(" horiz-adv-x="1800" d="M31 733q780 19 1247 67q186 -55 468 -67q-279 -23 -468 -67q-467 42 -1247 67z" />
<glyph unicode=")" horiz-adv-x="1800" d="M51 733q281 12 466 67q466 -48 1243 -67q-777 -25 -1243 -67q-188 44 -466 67z" />
<glyph unicode="*" horiz-adv-x="727" />
<glyph unicode="+" horiz-adv-x="1108" />
<glyph unicode="," horiz-adv-x="625" />
<glyph unicode="-" horiz-adv-x="738" d="M84 777q0 18 21 26h6q19 0 26 -22v-2l170 13q0 1 64 158q-16 7 -16 25q0 19 23 25h8q22 -5 22 -27q0 -15 -16 -23q64 -157 64 -158l170 -13q0 16 21 24h7q17 0 25 -20v-8q0 -18 -22 -24h-5q-11 0 -19 9q-2 -1 -130 -111q40 -164 40 -165h1h7q17 0 24 -19q1 -4 1 -6v-1 q0 -20 -22 -26q-3 -1 -4 -1q-19 0 -27 21v7q0 4 4 14h-1l-144 89q-137 -85 -145 -91q4 -6 4 -13q0 -19 -21 -26l-6 -1q-26 4 -26 27v1q0 17 20 25h4h7h1l41 166l-130 110q-1 0 -1 -1q-8 -8 -17 -8h-4q-17 0 -24 20z" />
<glyph unicode="." horiz-adv-x="399" d="M31 147q0 70 44 118t106 48q63 0 105.5 -49t42.5 -113q0 -72 -42.5 -119t-105.5 -47q-62 0 -106 47t-44 115z" />
<glyph unicode="/" horiz-adv-x="1264" d="M0 81v25q0 2 2 2h6q122 0 151 39q25 37 25 98q1 150 1 210q0 181 -76 236q-20 22 -65 31q-2 0 -2 3q58 14 91 47q28 26 39 78q9 40 9 174v53q0 12 -1 19q1 8 1 21v60q0 95 -49 114q-46 16 -118 16h-12q-1 0 -2 4v9q198 147 355.5 109.5t190.5 -168.5q87 -276 179 -470 q76 -159 119 -271v-1h2v668q0 89 -37 112q-40 23 -141 23l-1 1v16q26 46 99 69q36 10 60 10q82 0 131 -61q50 57 136 57q80 0 130 -47q21 -23 23 -34v-5q-3 -6 -7 -6q-117 0 -144 -33q-23 -31 -23 -62q-3 -8 -3 -93v-64q-3 -208 20 -249q8 -24 38 -52q19 -18 65 -38l14 -5 q0 -1 -35 -18q-55 -32 -78 -99q-25 -55 -21 -255q-2 -57 -2 -134q0 -132 15 -211l-2 -2q-311 13 -408 253q-62 148 -264 621l-7 17h-1v-638q0 -106 31 -125q32 -27 135 -27h7q2 -1 2 -2v-18q-16 -50 -65 -78q-31 -14 -58 -14h-13q-44 0 -98 24q-28 17 -55 54h-1 q-29 -46 -86 -65q-18 -3 -37 -3q-77 0 -150 57q-15 14 -15 18z" />
<glyph unicode="0" horiz-adv-x="1161" d="M0 756q80 58 102 129q9 30 26 126q28 104 61 169q26 53 71 110q59 65 88 82q39 27 72 41q77 29 144 29h30q96 0 191 -52q39 -23 85 -66q64 -69 88 -120q30 -52 60 -142q16 -48 37 -181q13 -52 29 -81q23 -40 65 -57v-1q-25 -10 -44 -33q-26 -27 -43 -96q-10 -42 -26 -173 q-20 -87 -45 -147q-40 -97 -116 -179q-62 -60 -108 -81q-87 -43 -173 -43h-30q-95 0 -188 51q-37 22 -82 63q-56 60 -69 85q-47 69 -80 171q-18 54 -42 193q-18 82 -41 127q-14 32 -47 65q-2 0 -15 11zM418 497q2 -230 8 -230q0 -18 18 -68q31 -70 136 -70q106 0 136 75 q23 49 23 202q1 71 1 109q0 198 -58 241l-9 4v2q69 78 69 182v14q-5 175 -10 203q-1 32 -23 83q-36 58 -130 58q-108 0 -137 -75q-23 -41 -23 -232q-1 -11 -1 -31q0 -162 65 -197q8 -5 8 -6q-34 -34 -44 -63q-29 -68 -29 -201z" />
<glyph unicode="1" horiz-adv-x="700" d="M0 92v14q1 3 6 3h2q131 0 154 49q16 20 16 125q1 203 1 259q0 174 -48 215q0 1 -15 15q35 37 44 67q18 36 18 219v28q0 146 -5 146q-1 15 -17 44q-28 37 -155 37l-1 2v13q17 47 70 76q47 22 92 22h14q71 0 127 -53l19 -24q27 44 94 65q60 12 98 12v-1q-31 -76 -31 -96 q-14 -53 -14 -186v-155q0 -149 35 -183q16 -21 37 -33q-24 -17 -38 -39q-35 -51 -35 -224q1 -185 1 -258q0 -98 39 -118q44 -24 132 -24h3q6 0 6 -3v-13q-8 -20 -50 -53q-58 -40 -121 -40h-13q-82 0 -144 75q-48 -74 -142 -74t-166 73q-7 9 -13 18z" />
<glyph unicode="2" horiz-adv-x="975" d="M0 2v87q0 142 29 206q38 83 84 145q65 73 114 111q106 87 106 150q0 19 -12 43h1q31 -6 52 -6h8q64 0 112 76q44 57 58 106q34 90 34 156v14q0 134 -71 186q-31 24 -112 24q-89 0 -153 -61q-50 -52 -50 -124v-7q0 -91 64 -140q5 -4 7 -7v-2q0 -25 -32 -25h-4 q-114 0 -155 106q-12 37 -12 75v14q0 38 21 111q3 19 5 47q0 37 -24 75q-16 21 -32 36v2q0 10 66 18h8q44 0 111 -55h1q139 97 284 97h15q142 0 283 -98q92 -68 128 -188q14 -52 14 -105v-16q0 -198 -153 -337q-80 -73 -135 -109q-38 -36 -38 -89q1 -20 7 -48h-1 q-41 19 -86 19q-74 0 -133 -50q-35 -21 -92 -74q-50 -56 -59 -101q-5 -23 -6 -38h410q147 0 232 24q22 6 25 6q0 -1 1 -1q-11 -43 -26 -72q-14 -30 -45 -62l-5 -2q0 -2 27 -18q56 -41 82 -91q0 -2 4 -9l-2 -1h-953q-2 0 -2 2z" />
<glyph unicode="3" horiz-adv-x="938" d="M0 28q53 60 60 95q15 27 15 163q1 37 18 88q14 38 62 89q10 10 19 10h2q20 -2 20 -13q-8 -109 -8 -137q0 -119 58 -170q58 -58 162 -58q80 0 102 54q26 54 26 193v171q0 152 -79 194q-38 20 -96 20q-40 0 -104 -13q-9 31 -49 68l-24 17v1q25 29 60 82q32 46 74 58 q93 18 144 39q113 45 113 139q0 18 -7 49h-104q-245 0 -356 -52l-53 -24v1q0 17 28 86q14 30 47 63q20 13 20 15q-70 51 -93 128q-3 7 -3 19q74 -15 210 -15h354q140 0 224 15q0 -1 1 -1q-13 -43 -13 -119q0 -71 13 -116q-45 -145 -157 -222q-51 -33 -99 -49 q-84 -27 -110 -27v-1q66 -8 122 -30q13 0 99 -43q34 -18 78 -58q31 -37 43 -70q18 -34 35 -104q11 -63 23 -87q16 -32 46 -48v-1q-22 -4 -42 -44q-18 -46 -36 -127q-36 -119 -143 -199q-121 -86 -243 -86h-24q-86 0 -188 45l-77 35q-58 -42 -103 -42q-22 0 -60 11z" />
<glyph unicode="4" horiz-adv-x="1046" d="M0 402v111q0 4 41 55q61 85 100 145q156 243 265 499q23 58 48 102q16 41 16 68t-7 40l2 1h16q126 0 176 -78h1q20 41 84 68q37 12 67 12h11q94 0 153 -92q0 -2 5 -9v-12q0 -2 -2 -2h-8q-110 0 -138 -30q-25 -27 -25 -109v-624h1q21 0 81 -4q83 0 134 39h1v-1 q0 -29 -35 -89l-11 -12q41 -38 41 -64q2 0 5 -40v-4h-1q-48 30 -129 30q-63 -1 -87 -1v-147q0 -102 40 -121q37 -20 129 -20h2q2 0 2 -2v-9q-18 -50 -72 -80q-43 -22 -86 -22h-12q-89 0 -149 77q0 3 -2 3q-30 -47 -102 -69q-29 -7 -56 -7h-10q-88 0 -139 63q-14 21 -16 32 v12q0 2 3 2q123 0 149 35q19 32 19 55q3 0 4 74v124h-507q-2 0 -2 1zM238 551h271v511h-1q-91 -248 -201 -417q-35 -52 -69 -94z" />
<glyph unicode="5" horiz-adv-x="966" d="M0 24q48 41 63 74q15 34 15 78q1 0 1 6q-3 62 -3 83v10q0 151 148 212q19 0 24 -17v-1q0 -2 -20 -48q-19 -56 -19 -99v-18q0 -84 63 -147q62 -52 155 -52q84 0 111 66q22 63 22 191v146q0 130 -46 180q-49 58 -169 58h-3q-121 0 -241 -85h-2q33 207 33 381q0 184 -33 372 q1 0 1 1l405 -5q267 0 328 20q-23 -52 -58 -95q-24 -24 -28 -24v-1q71 -41 71 -115q-2 -51 -6 -51q-112 52 -277 52q-36 0 -216 -5v-284h1q63 4 69 4q228 0 339 -83q99 -70 139 -189q8 -29 26 -118q15 -53 54 -81q7 -3 7 -5v-1q-21 -15 -35 -37q-19 -31 -31 -74 q-20 -80 -41 -121q-71 -132 -236 -199q-69 -24 -129 -24h-23q-95 0 -209 54l-61 28q-66 -51 -120 -51q-69 5 -69 14z" />
<glyph unicode="6" horiz-adv-x="1069" d="M0 787q48 26 68 80q12 35 33 151q48 193 152 305q118 128 279 128h21q93 0 230 -73q65 37 106 37h18q52 0 52 -8v-1q-74 -69 -74 -136l3 -83q0 -139 -123 -207q-19 0 -39 25l-3 10q30 76 30 133q0 104 -99 145q-52 19 -75 19q-21 3 -52 5q-1 -1 -4 -1h-2q-69 0 -107 -72 q-13 -32 -13 -63v-347h1q79 13 149 13q226 0 363 -143q27 -31 42 -58q28 -57 28 -76q15 -62 32 -85q22 -30 40 -38l1 -2q-46 -39 -71 -128q-14 -48 -32 -84q-21 -40 -55 -85q-142 -161 -343 -161h-21q-136 0 -248 85q-57 50 -80 84q-37 52 -56 93q-22 49 -42 116 q-29 129 -29 165q-5 36 -11 118q-11 65 -32 98q-8 14 -37 41zM401 305q0 -130 76 -165q25 -11 55 -11h3q133 0 133 187v235q0 133 -72 169q-31 12 -56 12h-13q-72 0 -105 -64q-21 -43 -21 -105v-258z" />
<glyph unicode="7" horiz-adv-x="900" d="M0 1427l2 1q67 -15 203 -15h697q2 0 2 -2q-134 -229 -243 -514q-7 -20 -7 -43q0 -44 32 -73v-1q-22 -3 -56 -33q-40 -46 -53 -119q-16 -63 -28 -163q-13 -102 -13 -337v-126q0 -2 -2 -2h-8q-85 0 -163 75q-45 -43 -95 -60q-46 -15 -77 -15h-5l-2 1q0 50 27 250 q25 160 59 277q45 133 45 168v16q0 38 -26 68q0 1 22 5q60 21 135 154q86 138 170 253q-1 4 -3 4h-204q-232 0 -338 -45q-23 -9 -69 -30q0 11 31 87q14 30 54 74q-63 56 -87 145z" />
<glyph unicode="8" horiz-adv-x="1000" d="M0 378q31 27 42 55q23 52 23 74q9 35 43 90q18 28 64 72q49 40 87 61q1 0 10 5v1q-44 21 -90 55q-61 54 -71 78q-26 40 -26 69q-6 28 -19 57q-24 44 -50 53v1q30 19 45 50q18 27 36 99q10 38 69 106q61 59 105 81q110 64 231 64h20q200 0 343 -154q62 -76 68 -126 q16 -63 68 -124q-32 -17 -49 -67q-19 -73 -41 -111q-53 -81 -161 -131q0 -1 31 -18q109 -67 158 -172q11 -31 31 -103q14 -36 44 -66v-2q-23 0 -56 -113q-35 -120 -120 -185q-43 -31 -98 -55q-112 -41 -213 -41h-25q-255 0 -389 177q-29 43 -36 66q-1 24 -27 90 q-11 25 -40 57q-2 0 -7 7zM377 289q3 -126 69 -154q26 -11 64 -11q89 0 110 59q19 45 19 130v161q0 144 -57 172q-30 16 -73 16q-88 0 -112 -59q-20 -45 -20 -108v-206zM377 937q2 -121 66 -150q30 -11 57 -11h18q53 0 84 28q37 41 37 155v158q0 143 -53 172q-30 18 -71 18 h-9q-91 0 -110 -62q-19 -45 -19 -105v-203z" />
<glyph unicode="9" horiz-adv-x="1058" d="M0 985v2q27 12 46 54q11 28 25 98q61 163 195 244q106 63 230 63h23q149 0 269 -104q64 -65 91 -114q27 -48 48 -106q20 -56 35 -137q10 -57 16 -126q7 -26 26 -42q25 -19 48 -31v-1q-37 -31 -46 -59q-12 -23 -24 -85q-10 -58 -21 -186q-18 -85 -41 -146 q-34 -88 -88 -163q-131 -167 -312 -167h-19q-91 0 -233 75q-60 -42 -114 -42q-49 0 -62 10v2q52 51 59 77q17 31 17 90q-2 55 -2 66v15q0 130 153 184h4q19 0 19 -17v-2q0 -8 -24 -66q-18 -59 -18 -105q0 -100 93 -134q49 -17 113 -17q77 0 107 34q41 38 41 114v338 q-84 -15 -154 -15q-239 0 -378 161q-38 54 -51 93q-5 50 -21 85q-10 25 -39 51q0 1 -11 9zM383 900q0 -112 33 -153q35 -46 101 -46h3q134 0 134 182v237q0 184 -132 184h-5q-102 0 -126 -107q-8 -30 -8 -96v-201z" />
<glyph unicode=":" horiz-adv-x="625" />
<glyph unicode="&#x3c;" horiz-adv-x="1108" />
<glyph unicode="=" horiz-adv-x="1108" />
<glyph unicode="&#x3e;" horiz-adv-x="1108" />
<glyph unicode="?" horiz-adv-x="1038" d="M55 1411q69 31 164 -27q49 27 87 44.5t69.5 26.5t63.5 13.5t73 4.5q170 0 261 -87.5t91 -234.5q0 -113 -50 -187.5t-109 -152t-5 -145.5q-99 0 -130 -47.5t-30.5 -92.5t37.5 -138q-78 20 -116.5 54.5t-55.5 67.5q-22 -35 -60 -68.5t-123 -41.5q42 81 60 168.5t38 159.5 t-20 172q100 1 134.5 28.5t79.5 92.5q45 64 45 140q0 101 -29 140.5t-88 39.5q-20 0 -53 -11t-68 -36q-121 -94 -86 -321q-63 0 -99.5 80t-13 168t0 120.5t-67.5 69.5zM235 154q0 75 49.5 127.5t120.5 52.5q70 0 120 -53.5t50 -124.5q0 -78 -50 -130.5t-120 -52.5 q-71 0 -120.5 52.5t-49.5 128.5z" />
<glyph unicode="@" horiz-adv-x="1633" d="M0 1251q26 41 115.5 55.5t177 -26.5t129.5 -213q19 -75 139 -561h1l135 513q46 164 51 190q5 25 5 57q0 34 -20 83l2 1q50 -6 99 -39q18 -13 35 -29q34 38 63 50q34 16 59 18v-1q-15 -83 -15 -99q0 -42 13 -85q134 -656 134 -658h1l168 710q0 26 -43 32q-25 1 -25 4v10 q0 30 45 56q26 12 48 12h8q49 0 86 -49q40 50 90 50h10q46 0 85 -40q14 -16 16 -27v-12q0 -2 -2 -2q-110 0 -135 -50q-14 -20 -36 -112q-52 -182 -52 -249q0 -47 37 -82v-1q-62 -28 -98 -112q-29 -72 -77 -270q-22 -76 -22 -117v-1q0 -40 59 -55q26 -6 56 -6l1 -1v-8 q-27 -59 -112 -81.5t-176 40t-125 208.5q-113 495 -119 519l-138 -559q-7 -31 -7 -57q0 -61 87 -61q1 -1 1 -2q0 -28 -38 -63q-40 -28 -86 -28q-68 0 -101 55q-4 8 -4 9q-30 -42 -75 -58q-26 -7 -45 -7h-12q-59 0 -104 43q-23 28 -25 49v1q1 1 2 1h9q79 0 103 45q6 15 6 29 v4q0 20 -17 77q-48 192 -77 278q-34 85 -81 113q-5 5 -23 16q39 36 39 86q0 58 -54 243q-24 90 -35 114q-19 31 -55 41q-38 9 -81 9z" />
<glyph unicode="A" horiz-adv-x="1300" d="M0 99v8q0 2 53 5q34 4 62 15q40 16 66 63q26 50 60 186q52 182 52 275q0 79 -38 99q-12 6 -23 6v2h1q28 0 69 34q36 38 55 75q49 90 103 308q18 57 18 84v5q0 31 -50 40q-23 4 -41 4h-34q-1 0 -1 2v1q0 38 50 74q57 35 124 35h16q75 0 137 -45q15 -13 30 -31 q56 64 158 64t154 -66q12 -22 12 -29v-3q0 -2 -2 -2h-22q-88 0 -106 -25q-8 -13 -8 -31q0 -34 46 -220q38 -176 72 -223q20 -31 67 -46q21 -5 29 -5v-2q-28 -9 -44 -34q-16 -29 -16 -72v-14q0 -99 93 -454q19 -47 53 -62q28 -11 90 -11l1 -2v-4q-2 -25 -37 -64 q-47 -39 -105 -39h-12q-76 0 -137 60l-13 16q-53 -75 -120 -75h-11q-83 0 -154 99q-1 2 -1 4v3q0 2 1 2q97 0 120 26q14 17 14 40v1q0 53 -26 157l-24 118h-322q-49 -206 -54 -234q-2 -34 -2 -36q0 -49 45 -63q18 -6 73 -10v-9q-13 -28 -51 -60q-35 -29 -73 -29 q-58 0 -121 66h-1q-20 -42 -68 -61q-31 -12 -61 -12q-84 0 -131 63q-15 25 -15 33zM502 596h246q-111 523 -111 527h-1q-8 -32 -134 -527z" />
<glyph unicode="B" horiz-adv-x="1072" d="M0 104v18q0 2 3 2q128 0 155 40q20 31 20 95l1 161q0 266 -86 321q-12 8 -37 15v2q28 2 63 34q60 65 60 255q-1 172 -6 172q-10 38 -28 50q-36 26 -144 26l-1 2v13q3 16 48 54q53 39 115 39q116 0 158 -73q34 38 56 48q75 43 197 43h27q223 0 332 -86q50 -46 62 -73 q19 -26 30 -81q2 -36 33 -77q13 -14 33 -30l-17 -9q-25 -21 -64 -144q-12 -34 -44 -67q-59 -57 -123 -83q-19 -7 -22 -10q48 -17 96 -50q56 -43 79 -87q19 -35 47 -125q16 -41 39 -68q18 -19 30 -22v-2q-25 -5 -47 -41q-16 -32 -25 -78q-12 -67 -24 -92q-43 -98 -150 -149 q-108 -47 -276 -47h-24q-137 0 -221 65l-24 26q-42 -69 -122 -69h-13q-87 0 -168 60q-18 16 -18 22zM470 253q0 -86 54 -114q33 -15 77 -15q92 0 115 45q22 41 22 185v74q0 151 -29 189q-14 21 -32 32q-36 32 -177 32h-30v-428zM470 822h1q167 0 200 21q33 15 50 46 q19 39 19 111v125q0 124 -39 149q-33 21 -98 21q-90 0 -117 -43q-16 -31 -16 -84v-346z" />
<glyph unicode="C" d="M0 699v1l53 38q36 31 53 54q27 36 36 91q7 105 17 126q20 85 61 164q28 55 73 107q55 58 84 75q110 74 244 74h26q112 0 208 -87q0 -2 6 -2q15 44 57 67q48 22 73 22q8 -3 8 -4v-1q-23 -27 -23 -87v-6q0 -71 24 -145q7 -24 7 -51v-13q0 -87 -63 -155q-44 -39 -96 -39 q-23 5 -23 17v6q0 11 35 84q19 47 19 86q0 67 -56 134q-62 47 -168 47q-112 0 -158 -51q-24 -31 -31 -66q-9 -7 -9 -177v-8q0 -242 105 -291l5 -2v-2q-22 -1 -50 -23q-61 -56 -61 -263q1 -189 6 -189q13 -63 44 -93q39 -39 124 -39q196 0 196 213q0 25 -1 111q2 37 14 37h1 q109 -33 141 -88q25 -38 25 -91q0 -17 -10 -116v-6q0 -80 70 -143v-2h-1q-37 -6 -62 -6q-64 0 -143 53q-97 -90 -213 -90h-26q-134 0 -247 77q-26 18 -77 68q-89 105 -126 231q-14 43 -24 98q-9 90 -21 131q-24 75 -73 104q-41 20 -53 20z" />
<glyph unicode="D" horiz-adv-x="1238" d="M0 113q1 4 3 4q127 0 159 42q22 33 22 101q0 28 3 154q0 212 -68 286q-33 35 -54 42q-15 6 -15 7v1q135 65 135 300q0 201 -9 201q-10 33 -29 45q-39 19 -65 19q-11 4 -81 6l-1 2v8q20 44 74 79q44 22 89 22h9q113 0 160 -76q75 94 255 94h31q153 0 269 -69 q121 -72 183 -238q25 -68 38 -149q11 -90 24 -135q27 -82 74 -112q24 -14 29 -14v-3q-46 -18 -77 -71q-25 -43 -38 -119q-6 -33 -21 -145q-14 -67 -36 -126q-65 -162 -202 -227q-113 -52 -256 -52h-31q-169 0 -243 93q-44 -74 -151 -74q-88 0 -154 53q-26 23 -26 51z M484 249q0 -93 47 -118q30 -14 79 -14q144 0 173 178q8 43 8 108v645q0 273 -175 273q-90 0 -115 -46q-17 -33 -17 -88v-101q0 -242 70 -293q12 -6 14 -6v-2q-35 -37 -51 -95q-23 -93 -23 -129q-10 -75 -10 -298v-14z" />
<glyph unicode="E" d="M0 102v7q0 2 3 2q130 0 158 39q21 36 21 82q0 370 -17 402q-10 46 -36 76q-36 33 -81 42v2q33 9 61 29q40 29 57 93q16 49 16 257v66q0 77 -37 102q-39 23 -144 23l-1 2v8q30 57 117 88q36 10 65 10h6q92 0 142 -72q73 94 261 94h26q157 0 295 -83q55 54 120 54 q69 -5 74 -16q-80 -75 -80 -138q1 -46 1 -75v-15l1 -5q-1 -2 -1 -5v-9q0 -117 -81 -173q-33 -30 -70 -30h-2q-13 11 -13 29q0 14 29 123q6 24 8 61q0 96 -89 146q-59 25 -130 25q-87 0 -150 -41q-28 -18 -40 -61q-7 -21 -7 -86v-321q50 -1 79 -1h34q140 0 218 55q0 -1 1 -1 q0 -90 -70 -129q30 -10 48 -41q14 -28 14 -84v-1h-2q-58 39 -136 48q-50 8 -159 8q-12 -1 -27 -1v-370q0 -141 24 -167q26 -42 102 -42h20q64 0 151 35q56 24 77 74q14 36 14 84q0 33 -17 149q-1 12 -1 17q0 31 23 31q85 -62 113 -141q17 -52 17 -174q0 -44 61 -116 q12 -14 40 -40q-6 -8 -39 -8q0 -1 -22 -1h-14q-64 0 -124 52l-15 11h-1q-64 -44 -108 -63q-78 -35 -180 -35h-25q-165 0 -248 94q-26 -43 -71 -62q-39 -11 -75 -11h-24q-100 0 -159 94q-1 2 -1 4z" />
<glyph unicode="F" d="M0 103v10q0 2 2 2h5q130 0 155 43q20 34 20 84v72q0 48 1 223q0 128 -41 170q-24 26 -72 39l-13 3v2q36 12 61 32q37 30 49 81q15 35 15 274v14q0 103 -15 123q-9 20 -26 28q-39 21 -140 21l-1 2v5q15 36 64 67q59 35 123 35h3q88 0 134 -64q4 -7 4 -9q75 94 261 94h26 q156 0 295 -82q54 53 119 53q68 -5 74 -16q-80 -74 -80 -138q1 -42 1 -70v-15q0 -4 1 -9q-1 -4 -1 -9v-5q0 -121 -88 -178q-26 -24 -61 -24h-4q-11 9 -11 25v6q0 17 27 119q8 40 8 62q0 91 -79 140q-56 31 -140 31q-100 0 -163 -53q-32 -35 -32 -99v-355q82 -1 110 -1 q140 0 220 54q0 -1 1 -1q0 -91 -70 -126v-2q29 -10 47 -40q14 -27 14 -83v-3h-1q-52 37 -138 49q-53 7 -139 7h-44q-1 -205 -1 -310v-110q0 -98 26 -120q10 -15 45 -25q40 -11 105 -11h59q1 0 1 -2v-4q0 -55 -94 -94q-51 -15 -90 -15h-20q-59 0 -122 26q-22 11 -47 38 l-15 18q-40 -74 -147 -74q-98 0 -164 66q-17 23 -17 29z" />
<glyph unicode="G" horiz-adv-x="1138" d="M0 703v1l52 38q37 32 53 55q31 43 36 90q7 105 18 129q19 75 43 126q40 89 112 164q131 124 303 124h26q113 0 212 -90h1q12 40 50 64q41 23 82 26q0 -2 6 -4v-1q-24 -26 -24 -93q0 -71 26 -150q6 -29 6 -51q0 -99 -70 -165q-39 -35 -91 -35q-21 5 -21 19v3q0 12 38 93 q16 43 16 75q0 71 -56 136q-63 47 -166 47q-138 -2 -173 -74q-24 -41 -24 -134q-1 -28 -1 -94q0 -228 94 -282q15 -8 17 -8v-2q-22 0 -54 -26q-38 -44 -49 -119q-9 -65 -9 -144q1 -11 1 -19q0 -162 6 -162q8 -50 31 -80q40 -53 120 -53h5q4 0 9 -1q33 5 55 15q50 26 68 82 q8 24 8 70v270q0 111 -44 131q-12 9 -46 14v6q0 39 58 72q32 13 62 13q63 0 117 -52h1q55 48 117 48q78 0 117 -76v-10q0 -1 -25 -7q-62 -25 -62 -122v-427q0 -86 32 -110q-8 -11 -14 -11h-6q-79 0 -129 70q-8 15 -8 19q-55 -57 -78 -67q-28 -19 -90 -39q-71 -16 -114 -16 h-36q-61 0 -147 28q-42 18 -88 48q-30 21 -78 68q-92 109 -129 242q-16 47 -32 180q-14 71 -46 108q-28 35 -88 50z" />
<glyph unicode="H" horiz-adv-x="1300" d="M0 96v9q0 2 3 2q133 0 160 44q19 36 19 79q0 345 -8 373q0 18 -18 69q-20 47 -66 68q-30 11 -32 13v1q41 18 82 55q32 36 38 75q5 40 5 78q-3 145 -3 210v13q0 98 -40 116q-42 21 -139 21l-1 2v2q0 34 58 72q58 30 115 30h4q2 0 3 1q2 -1 4 -1h2q91 0 145 -70 q49 66 129 66q79 0 128 -62q13 -24 13 -33v-5q0 -3 -28 -7q-55 -13 -72 -37q-19 -28 -19 -105v-342q0 -3 73 -15q48 -5 82 -5q79 0 150 19v363q0 88 -47 107t-71 19l-2 3v5q10 27 62 65q45 28 91 28q69 0 118 -64q54 73 143 73h12q69 0 133 -50q30 -28 40 -47v-10l-1 -2 q-123 0 -153 -34q-25 -35 -25 -92q0 -289 25 -334q9 -30 36 -60q33 -29 76 -38v-2q-71 -22 -96 -67q-39 -49 -39 -268q0 -49 -2 -192q0 -78 43 -106q40 -22 135 -22l1 -2v-6q0 -32 -54 -70q-53 -28 -107 -28h-13q-67 0 -125 43q-26 23 -28 29h-1q-51 -67 -127 -67 q-79 0 -131 63q-13 23 -13 31v5q0 3 37 9q38 11 53 23q30 25 30 98v449h-1q-76 -16 -151 -16q-72 0 -153 16v-423q0 -105 30 -123q18 -16 66 -27q23 -3 23 -6v-5q0 -54 -69 -88q-32 -11 -56 -11q-78 0 -146 72q-23 -42 -91 -64q-32 -9 -58 -9h-15q-79 0 -138 46 q-28 29 -28 50z" />
<glyph unicode="I" horiz-adv-x="700" d="M0 99v10q0 2 3 3h12q121 0 147 42q21 36 21 73q1 107 1 171v74q0 204 -35 252q-15 28 -57 44v2q42 14 61 46q31 45 31 203v51q0 54 -1 144q-6 79 -48 95q-39 18 -123 18h-10q-2 0 -2 2v7q0 18 33 49q64 49 142 49h14q91 0 142 -70q38 42 71 51q44 19 95 19h6 q103 0 153 -68q12 -21 12 -29v-8q0 -2 -1 -2h-11q-122 0 -150 -36q-23 -26 -23 -117q0 -67 -2 -186q0 -142 34 -179q26 -30 58 -39v-1l-32 -17q-32 -23 -46 -80q-14 -54 -14 -173q2 -141 2 -233q0 -105 34 -126q34 -28 139 -28h10q1 0 2 -3v-12q-4 -25 -31 -52 q-55 -44 -135 -44q-96 0 -160 64q-11 11 -11 13h-1q-24 -45 -95 -68q-32 -10 -60 -10h-19q-85 0 -139 57q-17 26 -17 42z" />
<glyph unicode="J" horiz-adv-x="1135" d="M0 19q77 67 77 157q2 12 5 110q5 57 36 103q35 43 62 58q49 29 64 29h6q14 0 15 -15v-2q-21 -96 -21 -143v-7q0 -140 103 -186q47 -21 112 -21h17q109 0 140 142q7 30 7 118v94q0 28 1 59q0 177 -36 215q-17 23 -54 33v2q37 9 54 32q36 38 36 182q-1 152 -1 196 q0 106 -36 127q-38 24 -142 24h-5q-1 0 -1 2v5q17 47 70 77q48 24 104 24q85 0 150 -57l14 -15q17 27 50 47q48 26 100 26h14q66 0 126 -40q34 -27 42 -58v-9q0 -2 -1 -2h-6q-119 0 -147 -33q-25 -23 -25 -123v-74q0 -43 -1 -89q0 -168 38 -206q21 -27 41 -36v-2 q-45 -18 -60 -53q-20 -40 -20 -138q2 -135 2 -208v-13q0 -125 -56 -208q-71 -104 -195 -146q-82 -24 -161 -24h-23q-159 0 -274 103h-1q-84 -68 -138 -68q-6 -1 -14 -1q-58 3 -65 9q-1 0 -3 3z" />
<glyph unicode="K" horiz-adv-x="1235" d="M0 102v10q0 1 3 1q124 0 154 36q26 24 26 127q2 58 2 120q0 283 -70 347q-24 22 -37 23v2q45 14 64 47q17 25 26 68q14 49 14 211v105q0 84 -45 106q-44 19 -136 19l-1 2v3q0 30 48 65q61 37 122 37h17q92 0 143 -71q55 69 149 69h4q88 0 142 -58q18 -24 18 -34v-11 q0 -2 -2 -2q-119 0 -142 -44q-18 -23 -18 -115v-379h1l320 433q16 31 16 56v1q0 41 -56 47q-19 0 -19 3v9q0 22 46 64q42 30 80 30h4q52 0 95 -53h1q40 53 98 53q63 0 101 -61q12 -23 12 -38v-4q0 -2 -2 -2q-102 0 -156 -72q-15 -17 -225 -313q-2 0 -29 -40q18 -50 46 -79 q36 -33 109 -52v-1q-35 -38 -35 -79v-8q0 -66 94 -268q88 -201 107 -235q26 -43 52 -53q32 -11 75 -11l1 -1v-12q0 -16 -28 -44q-56 -47 -125 -47q-65 0 -107 49q-30 -27 -72 -39q-56 -18 -96 -18q7 19 7 35v8q0 133 -192 513q-49 91 -53 95l-70 -97v-280q0 -95 20 -117 q24 -45 141 -45l1 -1v-5q-10 -41 -35 -63q-46 -44 -110 -44h-14q-65 0 -126 49q-12 11 -29 31q-55 -80 -168 -80q-88 0 -139 54q-22 28 -22 48z" />
<glyph unicode="L" d="M0 102v7q0 2 2 2q128 0 156 37q23 34 23 82q0 370 -17 401q-6 37 -35 75q-33 31 -63 37q-17 5 -19 5v2q42 12 77 43q30 28 45 96q12 60 12 210v92q-1 86 -42 107q-38 20 -137 20q-2 0 -2 2v5q23 51 95 83q43 17 83 17h14q58 0 111 -39q21 -23 25 -33q55 71 152 71 q77 0 141 -46q32 -27 41 -48q2 -7 2 -8v-2q0 -2 -1 -2h-1q-128 0 -157 -34q-22 -30 -22 -55q-4 0 -5 -243q0 -124 29 -167q16 -27 63 -64v-1q-22 -2 -52 -29q-26 -29 -34 -82q-5 -28 -5 -113v-225q0 -151 37 -167q31 -27 81 -27q1 -2 1 -3q23 -1 34 -1h1q168 0 223 104 q22 46 22 95v4q0 1 1 1l-1 2v13q0 58 -29 149q0 18 22 21q86 -63 112 -142q17 -48 17 -171q0 -44 60 -116q13 -14 41 -40q-6 -7 -40 -7q0 -1 -21 -1h-14q-64 0 -124 51l-14 11h-1q-64 -43 -107 -62q-78 -36 -180 -36h-25q-110 0 -190 43q-11 8 -44 37q-12 14 -13 14 q-25 -43 -70 -61q-39 -12 -75 -12h-24q-99 0 -158 94q-1 2 -1 4z" />
<glyph unicode="M" horiz-adv-x="1600" d="M0 112q2 1 3 1q124 0 155 35q16 21 21 46q6 19 6 143v116q0 204 -57 255q-24 27 -67 38v1q33 18 57 39q34 35 43 69q22 48 22 305q1 8 1 45q0 83 -49 106q-44 18 -121 18h-12q-2 0 -2 2v11q11 39 54 65q47 26 94 26h16q64 0 119 -54q0 -2 11 -14h1q43 69 132 69 q83 0 142 -63q17 -22 17 -35q-1 -7 -3 -7h-10q-61 0 -74 -20l-1 -4q0 -15 39 -113q247 -646 253 -661q291 711 298 730q6 18 6 28q0 31 -95 38q-20 2 -46 2h-19q-1 0 -1 2v8q0 39 64 73q51 22 108 22h7q98 0 155 -69q24 41 88 61q28 8 52 8h17q73 0 138 -44q34 -31 36 -49 v-10q0 -2 -2 -2h-10q-122 0 -149 -38q-14 -15 -21 -64q0 -6 -1 -14q-1 -122 -1 -195v-3q0 -157 40 -203q29 -39 63 -54v-3q-24 -7 -55 -38q-33 -40 -41 -103q-7 -58 -7 -139v-10q0 -87 1 -233q0 -34 17 -70q12 -24 52 -36q41 -13 113 -13l1 -2q0 -78 -101 -105 q-30 -6 -46 -6h-20q-80 0 -143 53l-22 26q-58 -78 -160 -78q-96 0 -160 75q-16 23 -16 30q1 7 3 7h1q131 0 160 40q22 33 22 91v582h-1q-18 -42 -112 -233q-110 -235 -110 -341q0 -26 13 -57h-1q-93 0 -145 91q-15 -26 -29 -42q-44 -44 -119 -44v1q8 24 8 53q0 128 -166 460 q-35 74 -45 101h-1v-540q0 -106 23 -126q0 -9 37 -23q39 -13 116 -13q2 -6 2 -8q0 -52 -82 -88q-35 -12 -63 -12h-19q-58 0 -110 49l-19 25q-53 -74 -135 -74q-75 0 -136 65q-22 33 -22 42z" />
<glyph unicode="N" horiz-adv-x="1269" d="M0 85v25q0 2 2 2h6q123 0 152 40q25 37 25 99q1 151 1 211q0 183 -76 239q-20 21 -66 32q-2 0 -2 2q58 14 92 47q28 27 40 78q9 41 9 176v53q0 14 -1 20q1 9 1 22v59q0 97 -50 116q-46 17 -119 17h-11q-1 0 -3 3v9q18 41 77 74q43 19 81 19h4q77 0 131 -69q29 47 85 66 q53 12 118 12h20q3 -1 3 -6v-5q0 -66 31 -149q88 -280 181 -476q77 -160 121 -273v-1h1v674q0 90 -37 113q-40 23 -143 23l-1 2v16q27 46 101 70q36 8 61 8q82 0 131 -60q51 57 138 57q80 0 131 -48q21 -22 23 -34v-5q-3 -6 -7 -6q-118 0 -146 -33q-22 -31 -22 -63 q-3 -8 -3 -93v-65v-46q0 -169 20 -206q7 -24 38 -52q19 -18 66 -38l14 -5v-1q0 -1 -35 -16q-56 -33 -79 -101q-22 -50 -22 -216v-42q-1 -57 -1 -135q0 -133 15 -213h-3q-97 0 -144 42q-17 14 -41 38q-63 -80 -191 -80l-1 1v60q0 121 -34 193q-62 149 -267 626l-7 18h-1v-644 q0 -106 31 -127q33 -27 137 -27h7q2 0 2 -2v-18q-16 -50 -65 -79q-31 -13 -59 -13h-13q-45 0 -98 24q-30 17 -56 54h-1q-29 -46 -87 -66q-19 -2 -38 -2q-77 0 -151 56q-15 15 -15 19z" />
<glyph unicode="O" horiz-adv-x="1184" d="M0 763q82 59 105 131q9 31 26 129q29 106 62 172q27 54 72 114q61 66 91 83q39 28 74 42q78 30 146 30h32q97 0 195 -54q39 -23 86 -67q65 -71 91 -123q30 -53 61 -144q16 -50 38 -186q13 -53 29 -83q24 -40 67 -58v-2q-26 -9 -45 -33q-27 -28 -44 -98q-10 -43 -26 -177 q-21 -89 -47 -150q-40 -100 -118 -184q-64 -60 -110 -82q-89 -44 -177 -44h-32q-97 0 -192 52q-38 22 -83 65q-58 61 -71 87q-48 71 -82 175q-19 55 -42 196q-19 84 -42 131q-15 32 -49 66q-1 0 -15 12zM427 497q3 -235 9 -235q0 -18 18 -69q32 -71 139 -71q108 0 139 76 q23 50 23 206q1 73 1 112q0 203 -59 247l-8 4v1q70 80 70 187v14q-5 179 -10 207q-1 33 -24 85q-36 60 -133 60q-111 0 -140 -77q-24 -42 -24 -237q-1 -12 -1 -32q0 -165 67 -202q8 -5 8 -6q-34 -34 -45 -64q-30 -69 -30 -206z" />
<glyph unicode="P" horiz-adv-x="1167" d="M0 97v9q0 2 3 2q129 0 158 40q22 32 22 107q0 40 1 207q0 203 -58 257q-21 24 -68 36h-1v2q41 15 73 46q30 32 41 82q13 42 13 238v43q0 103 -32 123q-33 28 -137 28h-13q-2 0 -2 2v18q14 31 63 66q47 25 104 25q115 0 154 -60l11 -14q106 94 301 94h24q236 0 353 -128 q21 -22 59 -115q29 -63 55 -92q28 -37 89 -54q2 -1 4 -1v-2q-46 -12 -73 -42q-32 -33 -50 -69q-28 -54 -69 -139q-52 -93 -181 -141q-90 -30 -180 -30h-20q-49 0 -160 12v-378q0 -92 20 -116q12 -21 49 -32q42 -13 116 -13l1 -2v-11q-16 -44 -61 -70q-44 -25 -96 -25h-14 q-87 0 -154 59q-13 14 -13 16q-55 -74 -165 -74q-79 0 -133 45q-29 31 -34 51zM484 807q0 -4 69 -9q4 0 21 -1q154 0 192 77q23 41 23 115v138q0 134 -96 178q-34 12 -64 12h-16q-92 0 -120 -69q-9 -21 -9 -77v-364z" />
<glyph unicode="Q" horiz-adv-x="1200" d="M0 749q82 58 106 133q8 30 24 124q30 111 64 178q27 55 74 113q47 53 81 77q48 34 84 48q77 29 144 29h32q97 0 195 -54q40 -24 87 -67q62 -68 86 -117q29 -48 56 -123q25 -73 38 -160q11 -71 26 -111q10 -28 42 -62q19 -15 37 -22v-2q-37 -14 -60 -54q-12 -18 -24 -62 q-14 -51 -30 -188q-22 -95 -49 -160q-27 -61 -69 -122q-55 -73 -109 -108q63 -71 92 -92q30 -17 49 -17h6q26 0 59 20q4 0 6 -9q-10 -47 -33 -70q-27 -23 -68 -23q-25 0 -63 9q7 -24 7 -44v-5q0 -78 -87 -132q-4 1 -6 5q6 31 6 54v12q0 145 -167 211q-19 6 -24 6h-8 q-7 0 -11 -1q-178 0 -301 126q-51 56 -79 105q-26 45 -54 116q-29 86 -44 179q-19 105 -41 159q-22 53 -55 85zM428 483q2 -240 10 -246q2 -27 22 -70q8 -17 34 -37q63 73 134 73h4q49 0 96 -32q28 45 28 221q1 74 1 110q0 197 -55 243q-9 7 -12 7v2q70 80 70 187v14 q-5 179 -10 208q-1 32 -24 85q-36 60 -134 60q-110 0 -140 -77q-23 -43 -23 -238q-1 -11 -1 -32q0 -165 66 -202q9 -5 9 -6q-33 -33 -45 -62q-30 -71 -30 -208z" />
<glyph unicode="R" horiz-adv-x="1227" d="M0 101v11l1 2q125 0 156 35q25 25 25 112q1 0 2 247q0 2 1 11q-1 4 -1 14v5q0 177 -45 214q-21 21 -44 26v2q46 14 66 48q23 40 23 141v4q0 9 1 9q0 2 -1 10q0 259 -8 259q-4 26 -29 49q-39 25 -146 25l-1 2v12q9 30 42 52q57 36 130 36q96 0 158 -66q29 32 63 47 q100 47 240 47h25q233 0 346 -141q36 -43 58 -134q20 -59 54 -82q11 -5 12 -5v-1q-40 -21 -68 -88q-32 -81 -48 -110q-56 -72 -158 -106v-1q56 -11 95 -27q44 -17 84 -56q46 -49 46 -131v-309q0 -101 39 -128q30 -22 104 -22l1 -2v-14q-20 -33 -60 -58q-45 -26 -93 -26 q-71 0 -128 66q-37 -51 -103 -71q-32 -9 -55 -9l-1 2v533q0 113 -39 131q-22 24 -183 24h-79v-450q0 -81 43 -105q43 -21 141 -21l1 -2v-10q-19 -48 -72 -78q-50 -24 -101 -24q-100 0 -165 80q-52 -80 -146 -80q-92 0 -168 80q-15 17 -15 21zM482 836h84q163 0 191 82 q20 43 20 99v140q0 119 -76 153q-33 15 -84 15q-90 0 -116 -45q-19 -33 -19 -92v-352z" />
<glyph unicode="S" horiz-adv-x="1055" d="M0 19v7q0 2 22 21q64 78 64 149q-7 39 -7 74q0 148 93 196q22 15 53 17q32 0 32 -22v-1q0 -9 -20 -58q-8 -29 -10 -44q0 -83 55 -155q46 -49 75 -61q69 -37 142 -37h2q95 0 130 22q28 9 69 50q41 52 41 111v14q0 78 -85 162q-31 22 -64 22h-5q-53 0 -132 -44h-1v1 q5 34 6 62q0 127 -120 188q-20 12 -86 47q-33 17 -85 66q-106 110 -106 267q0 175 162 303q133 91 291 91h20q150 0 298 -107q75 67 150 67q55 -4 60 -11v-6q-52 -49 -62 -78q-15 -34 -15 -67q0 -14 15 -81q2 -18 2 -33q0 -121 -103 -180q-27 -12 -46 -12q-25 0 -25 23 q0 16 25 73q8 25 8 43v9q0 63 -65 131q-46 38 -82 54q-73 30 -127 30h-18q-126 0 -163 -91q-14 -42 -14 -88q0 -106 117 -187q102 -76 121 -77q32 -12 78 -12h7q73 0 126 39h1v-1q-10 -38 -10 -71v-2q0 -96 90 -162q60 -60 76 -95q36 -64 36 -184v-13q0 -215 -173 -339 q-117 -78 -282 -78h-20q-162 0 -287 95q-14 8 -37 26h-1q-47 -38 -70 -53q-35 -22 -74 -22h-17q-50 0 -55 12z" />
<glyph unicode="T" horiz-adv-x="1361" d="M0 1417v1q20 15 56 15h7q58 0 119 -47q0 -2 4 -2q124 78 242 78h13q114 0 235 -79h1q119 79 231 79h19q115 0 239 -78h1q64 49 121 49h9q38 0 56 -16q-94 -84 -94 -139q7 -111 7 -127q0 -143 -119 -184h-2q-18 0 -18 11v1q22 70 22 127v3q0 160 -130 213q-41 14 -86 14 h-3q-72 0 -89 -58q-14 -29 -14 -170q0 -48 -2 -97q0 -167 26 -201q14 -24 52 -47q-48 -39 -63 -93q-15 -58 -15 -172q2 -144 2 -247q0 -95 47 -116q41 -20 131 -20l1 -2v-10q-20 -51 -73 -81q-44 -22 -87 -22h-14q-83 0 -149 70q0 2 -8 11h-1q-56 -77 -153 -77h-1 q-96 0 -169 80q-4 4 -13 17v12q1 2 2 2q130 0 160 38q25 24 25 122v102q0 45 1 92q0 199 -38 246q-21 33 -56 47v1q49 20 71 61q23 47 23 162q0 266 -9 266q0 20 -20 55q-25 29 -77 29q-149 0 -201 -128q-16 -46 -16 -99v-2q0 -58 22 -128v-2q0 -10 -18 -10h-1q-32 7 -71 42 q-49 51 -49 144q0 14 7 125v1q0 52 -93 138z" />
<glyph unicode="U" horiz-adv-x="1200" d="M0 1331v5q18 49 73 80q42 18 73 18h19q69 0 127 -47q18 -18 18 -22h1q48 67 142 67q90 0 142 -76q8 -10 11 -22v-3q0 -2 -1 -2h-4q-107 0 -127 -53q-14 -29 -14 -72q0 -81 -1 -206q0 -174 30 -211q8 -10 19 -20v-1q-31 -33 -37 -72q-12 -48 -12 -155q0 -29 1 -232 q0 -93 57 -142q44 -36 123 -36q171 0 171 188q0 38 1 238q0 167 -30 200l-12 12q22 17 31 55q11 39 11 138q0 43 -1 245q0 80 -43 106q-33 18 -96 18h-3q-2 0 -2 2v4q17 48 67 78q35 18 68 18h3q66 0 117 -66q50 59 120 59h3q72 0 117 -56q12 -20 12 -32v-5q0 -2 -2 -2h-4 q-88 0 -114 -40q-19 -31 -19 -83v-191q0 -157 28 -205q9 -19 32 -43q-34 -21 -47 -57q-14 -40 -14 -119v-89q0 -40 1 -100q0 -238 -141 -346q-107 -72 -285 -72h-25q-291 1 -373 180q-48 93 -48 235v169q0 147 -28 178q-14 17 -28 20v2q27 15 40 56q16 42 16 198v161 q0 108 -42 126q-36 20 -115 20h-4q-2 0 -2 2z" />
<glyph unicode="V" horiz-adv-x="1229" d="M0 1324v8q8 20 53 56q47 33 98 33h5q71 0 146 -64h1q64 73 144 73h13q79 0 136 -72q11 -19 15 -32v-2q0 -2 -2 -2h-19q-102 0 -115 -19q-20 -17 -20 -41v-3q0 -33 39 -176q9 -41 152 -616h1l146 607q49 193 49 209q0 30 -49 37q-11 1 -20 1h-6q-2 0 -3 3v8q0 25 45 60 q40 27 79 27q58 0 93 -62h2q41 62 106 62t108 -61q12 -21 12 -29v-5q0 -3 -7 -3h-5q-118 0 -149 -70q-15 -30 -47 -157q-60 -206 -60 -269q0 -43 25 -70q-36 -13 -63 -69q-36 -79 -102 -340q-34 -121 -34 -150v-16q0 -40 46 -56q41 -13 92 -13h31q2 -1 2 -2v-12 q-5 -25 -37 -54q-54 -43 -123 -43h-15q-83 0 -146 62l-14 15q-23 -45 -89 -69q-30 -8 -52 -8h-15q-87 0 -161 73l-15 19v17q1 2 2 2h19q109 0 134 42q15 18 15 45q0 33 -21 99q-69 277 -111 379q-21 42 -39 60q-15 14 -35 19v1q31 35 31 83v2q0 61 -59 258q-36 135 -47 159 q-8 18 -31 39q-37 24 -112 24h-6q-11 0 -11 3z" />
<glyph unicode="W" horiz-adv-x="1900" d="M0 1334v6q25 55 92 81q31 10 58 10h4q77 0 149 -63h1q76 66 152 66h12q80 0 139 -75q10 -15 10 -18v-7q0 -2 -2 -2h-39q-83 0 -101 -23q-16 -16 -16 -37v-3q0 -30 31 -150q23 -87 161 -650h1l158 594q52 190 58 221q6 28 6 66q0 39 -22 96l1 1q58 -7 115 -45 q21 -15 41 -34q39 44 73 58q39 18 69 21v-1q-18 -97 -18 -115q0 -49 15 -99q155 -759 155 -762h1l195 823q0 30 -49 37q-30 1 -30 4v13q0 34 52 64q30 14 56 14h9q57 0 100 -57q46 58 105 58h11q53 0 99 -46q16 -19 18 -31v-15q0 -2 -2 -2q-127 0 -156 -57q-17 -24 -42 -130 q-61 -212 -61 -289q0 -55 44 -96v-1q-73 -32 -115 -130q-33 -82 -88 -312q-27 -88 -27 -135v-2q0 -47 69 -63q30 -7 65 -7l1 -2v-9q-68 -92 -159 -92h-5q-74 0 -136 69q-51 -63 -116 -63h-14q-63 0 -112 50q-21 25 -21 46q37 3 54 12q49 31 49 69v7q0 31 -18 95 q-131 575 -138 602h-1l-159 -648q-8 -36 -8 -66q0 -70 100 -70q1 -2 1 -3q0 -33 -44 -73q-46 -32 -100 -32q-78 0 -116 63q-5 9 -5 11q-34 -49 -87 -67q-30 -9 -52 -9h-14q-69 0 -121 50q-27 32 -28 57v1q0 2 2 2h10q91 0 119 51q8 18 8 34v4q0 24 -20 89q-56 224 -90 323 q-39 99 -93 132q-7 5 -27 17v1q45 42 45 99q0 68 -63 282q-27 105 -41 132q-21 37 -63 48q-44 10 -94 10z" />
<glyph unicode="X" horiz-adv-x="1175" d="M0 88v15q0 1 2 1q134 0 182 123q187 397 198 425q5 17 5 28v6q0 38 -55 58v1q43 34 43 69v3q0 30 -38 100q-152 308 -167 330q-36 51 -71 62q-36 13 -92 13h-5q-2 0 -2 1v7q0 33 59 71q52 25 101 25q89 0 138 -68h1q20 37 74 56q26 7 46 7q73 0 128 -54q22 -25 25 -39v-5 q0 -1 -2 -1h-71q-46 0 -46 -30q0 -17 38 -89q59 -117 111 -221q2 1 126 277q8 30 8 33q0 25 -49 30h-12q-2 0 -2 2q0 62 81 93q25 6 41 6q59 0 106 -49q46 52 100 52h12q55 0 98 -53q20 -30 20 -41v-9q0 -1 -2 -1h-6q-136 0 -188 -91q-23 -29 -68 -140q-95 -210 -102 -234 q-3 -10 -4 -28q0 -62 59 -84v-1q-52 -31 -52 -85q0 -27 31 -80q195 -397 204 -408q40 -67 161 -67h1q2 0 2 -1v-13q0 -19 -35 -52q-53 -38 -109 -38h-13q-79 0 -121 66q-2 3 -2 5h-1q-41 -65 -125 -65q-65 0 -119 47q-20 23 -22 35v15q0 1 30 5q31 8 43 25q7 10 7 27 q0 23 -42 102l-122 258q-6 -9 -145 -327q-15 -34 -15 -55q0 -26 40 -31q21 -3 51 -3h6q2 0 2 -1v-15q0 -30 -44 -61q-40 -24 -84 -24q-73 0 -107 68h-1q-3 -12 -36 -41q-38 -28 -77 -28h-11q-63 0 -103 52q-12 21 -12 34z" />
<glyph unicode="Y" horiz-adv-x="1149" d="M0 1327v8q12 32 54 59q49 30 106 30h4q77 0 136 -63q56 70 130 70h11q77 0 140 -76q0 -1 10 -17v-11q0 -2 -2 -2h-35q-76 0 -93 -32v-7q0 -23 40 -100q110 -226 118 -244h2q149 282 165 314q9 20 9 33v2q0 24 -34 32q-17 2 -31 2h-31q-2 0 -2 2q0 71 87 98q18 6 39 6h4 q65 0 107 -58q10 18 36 35q31 15 62 15q63 0 102 -70q5 -7 8 -17v-9q0 -2 -2 -2h-3q-117 0 -165 -97q-184 -332 -184 -340q-7 -20 -7 -39q0 -46 42 -88q0 -1 -18 -7q-82 -41 -82 -178v-329q0 -85 44 -109q40 -20 120 -20h5q10 0 10 -3v-11q-6 -14 -55 -59q-62 -45 -119 -45 h-13q-75 0 -142 81q0 2 -2 2h-1q-57 -83 -144 -83q-100 0 -186 106v9q0 3 10 3h6q122 0 148 43q20 26 20 110v274q0 135 -40 177q-15 24 -56 37q-3 0 -3 2q34 26 34 62v6q0 40 -57 142q-83 174 -148 281q-40 54 -85 67q-29 6 -62 6h-5q-2 0 -2 2z" />
<glyph unicode="Z" horiz-adv-x="1026" d="M0 10q198 394 258 532q52 123 52 194q0 42 -24 77v2h11q87 0 145 99q31 44 150 299q6 10 32 67q-68 25 -129 25q-157 0 -221 -77q-43 -50 -43 -160v-95q0 -17 -16 -21h-15q-93 57 -93 173q0 4 4 82q0 76 -63 157l-22 23v1q13 14 62 14h5q72 0 140 -64q100 94 252 94h15 q60 0 375 -44q8 0 17 -1q33 0 103 18q0 -1 1 -1q-184 -353 -258 -514q-39 -92 -39 -136q0 -43 38 -86v-1h-8q-97 0 -176 -147q-49 -83 -191 -374q138 -28 216 -28q0 -1 11 -1q152 0 195 132q10 36 10 77q0 60 -26 136q4 30 24 30h4q70 -31 100 -96q11 -33 11 -60v-14 q0 -17 -13 -112q0 -6 -1 -10q5 -62 14 -81q13 -30 48 -66l16 -13v-1q0 -7 -71 -13q-44 0 -102 40q-122 -73 -231 -73h-11q-49 0 -286 38q-61 8 -88 8q-73 0 -181 -30q0 1 -1 1z" />
<glyph unicode="[" horiz-adv-x="1633" d="M0 1251q26 41 113 78.5t177 -26.5t132 -236q19 -75 139 -561h1l135 513q46 164 51 190q5 25 5 57q0 34 -20 83l2 1q50 -6 99 -39q18 -13 35 -29q34 38 63 50q34 16 59 18v-1q-15 -83 -15 -99q0 -42 13 -85q134 -656 134 -658h1l168 710q0 26 -43 32q-25 1 -25 4v10 q0 30 45 56q26 12 48 12h8q49 0 86 -49q40 50 90 50h10q46 0 85 -40q14 -16 16 -27v-12q0 -2 -2 -2q-110 0 -135 -50q-14 -20 -36 -112q-52 -182 -52 -249q0 -47 37 -82v-1q-62 -28 -98 -112q-29 -72 -77 -270q-22 -76 -22 -117v-1q0 -40 59 -55q26 -6 56 -6l1 -1v-8 q-27 -59 -112 -81.5t-176 40t-125 208.5q-113 495 -119 519l-138 -559q-7 -31 -7 -57q0 -61 87 -61q1 -1 1 -2q0 -28 -38 -63q-40 -28 -86 -28q-68 0 -101 55q-4 8 -4 9q-30 -42 -75 -58q-26 -7 -45 -7h-12q-59 0 -104 43q-23 28 -25 49v1q1 1 2 1h9q79 0 103 45q6 15 6 29 v4q0 20 -17 77q-48 192 -77 278q-34 85 -81 113q-5 5 -23 16q39 36 39 86q0 58 -54 243q-24 90 -35 114q-19 31 -55 41q-38 9 -81 9z" />
<glyph unicode="\" horiz-adv-x="569" />
<glyph unicode="]" horiz-adv-x="758" />
<glyph unicode="^" horiz-adv-x="1014" />
<glyph unicode="_" horiz-adv-x="1024" />
<glyph unicode="`" horiz-adv-x="1024" />
<glyph unicode="a" horiz-adv-x="1132" d="M0 186v6q0 3 46 4q29 4 54 13q34 14 57 55q22 43 51 161q45 157 45 238q0 68 -33 85q-10 5 -19 5v2h1q23 0 59 29q31 33 48 65q42 78 89 266q15 49 15 73v5q0 26 -43 34q-20 3 -36 3h-29q-1 0 -1 2v1q0 33 43 64q49 30 108 30h13q65 0 118 -39q14 -11 26 -27 q49 56 137 56t133 -57q11 -19 11 -26v-2q0 -2 -2 -2h-19q-76 0 -91 -21q-8 -11 -8 -27q0 -30 40 -190q33 -152 62 -193q18 -27 58 -40q18 -4 26 -4v-2q-25 -8 -39 -29q-14 -26 -14 -62v-12q0 -86 80 -392q17 -41 47 -54q24 -10 78 -10v-2v-3q-2 -22 -31 -55q-41 -34 -91 -34 h-11q-66 0 -118 52l-12 13q-45 -64 -103 -64h-9q-72 0 -134 86q-1 1 -1 3v2q0 2 2 2q83 0 103 23q12 14 12 34v1q0 46 -22 136l-21 102h-278q-43 -179 -47 -202q-2 -30 -2 -31q0 -43 39 -55q16 -6 63 -9v-7q-11 -25 -44 -52q-30 -25 -63 -25q-50 0 -105 56q-18 -35 -59 -52 q-27 -10 -53 -10q-72 0 -113 54q-13 21 -13 29zM434 615h212q-96 452 -96 455q-7 -28 -116 -455z" />
<glyph unicode="b" horiz-adv-x="1000" d="M0 174v15q0 2 2 2q112 0 136 34q17 27 17 83l1 141q0 231 -75 279q-10 7 -32 13v2q24 2 55 30q52 56 52 222q-1 149 -5 149q-9 33 -25 44q-31 23 -125 23l-1 1v12q3 13 42 47q46 34 100 34q101 0 137 -64q30 33 49 42q65 37 171 37h24q194 0 289 -74q44 -41 54 -64 q17 -23 26 -71q2 -31 29 -67q12 -12 29 -26l-15 -8q-22 -18 -56 -126q-10 -28 -38 -58q-52 -49 -108 -72q-16 -6 -18 -9q41 -14 83 -43q49 -38 69 -76q16 -31 41 -108q14 -36 34 -60q16 -16 26 -19v-1q-22 -5 -41 -36q-13 -28 -22 -68q-10 -58 -21 -80q-37 -86 -130 -130 q-94 -41 -241 -41h-20q-119 0 -193 57l-21 22q-36 -60 -106 -60h-11q-76 0 -147 52q-15 15 -15 20zM409 303q0 -75 47 -99q29 -13 67 -13q80 0 100 39q20 36 20 161v64q0 132 -26 165q-12 19 -28 28q-31 28 -153 28h-27v-373zM409 799h1q145 0 174 18q29 13 43 40 q17 34 17 96v110q0 107 -34 129q-28 19 -85 19q-79 0 -102 -38q-14 -27 -14 -73v-301z" />
<glyph unicode="c" horiz-adv-x="941" d="M0 711v1l45 33q32 27 46 47q24 31 32 78q5 90 14 109q17 73 52 141q25 47 63 92q48 50 73 64q95 64 209 64h23q96 0 179 -74q0 -3 5 -3q13 38 49 59q41 18 64 18q6 -2 6 -4v-1q-20 -23 -20 -74v-5q0 -62 21 -125q6 -21 6 -44v-11q0 -75 -55 -134q-37 -33 -82 -33 q-20 4 -20 15v4q0 10 30 73q17 41 17 74q0 57 -48 115q-54 41 -145 41q-97 0 -136 -44q-21 -26 -27 -57q-8 -6 -8 -152v-8q0 -208 91 -250l4 -1v-2q-19 -1 -43 -20q-53 -48 -53 -227q2 -162 6 -162q11 -54 38 -80q33 -34 107 -34q168 0 168 184q0 21 -1 95q2 32 12 32h1 q94 -28 121 -76q22 -32 22 -78q0 -15 -8 -100v-5q0 -69 60 -123v-2h-1q-32 -5 -54 -5q-54 0 -123 45q-84 -77 -183 -77h-23q-115 0 -212 67q-23 15 -66 58q-77 90 -109 199q-12 37 -20 84q-9 78 -18 113q-21 65 -64 89q-35 17 -45 17z" />
<glyph unicode="d" d="M0 196q1 4 2 4q110 0 138 36q19 29 19 88q0 24 3 132q0 184 -59 248q-29 30 -47 36q-13 6 -13 7v1q117 55 117 259q0 174 -8 174q-8 28 -25 39q-34 16 -56 16q-10 4 -70 5l-1 2v7q17 38 64 68q38 19 77 19h8q97 0 138 -65q65 81 221 81h27q132 0 233 -60 q104 -62 158 -205q21 -59 32 -130q10 -78 22 -116q22 -71 63 -97q21 -12 26 -12v-3q-41 -15 -67 -62q-22 -36 -33 -103q-5 -28 -18 -125q-13 -58 -32 -109q-56 -140 -174 -196q-98 -45 -222 -45h-26q-146 0 -211 81q-37 -65 -130 -65q-76 0 -134 46q-22 20 -22 44zM418 314 q0 -81 42 -102q25 -12 67 -12q125 0 151 154q6 37 6 93v558q0 236 -151 236q-78 0 -100 -39q-15 -29 -15 -76v-88q0 -210 61 -253q11 -6 12 -6v-2q-30 -32 -44 -81q-19 -81 -19 -113q-10 -64 -10 -257v-12z" />
<glyph unicode="e" horiz-adv-x="1000" d="M10 185v6q0 2 2 2q113 0 137 34q18 31 18 71q0 319 -15 347q-8 40 -30 66q-31 28 -70 36v1q28 9 52 26q35 25 49 80q14 43 14 223v56q0 67 -32 89q-33 20 -124 20l-1 1v7q26 50 101 77q31 8 56 8h5q80 0 124 -63q62 82 225 82h22q136 0 256 -72q47 47 103 47 q60 -4 64 -14q-69 -65 -69 -119q1 -40 1 -65v-13l1 -5q-1 -1 -1 -4v-7q0 -102 -70 -150q-29 -26 -61 -26h-1q-11 10 -11 25q0 12 25 106q5 21 7 53q0 83 -77 127q-51 21 -113 21q-75 0 -130 -36q-24 -15 -35 -52q-5 -18 -5 -74v-278q43 -1 68 -1h30q120 0 188 48q0 -1 1 -1 q0 -78 -61 -112q27 -9 42 -35q12 -24 12 -73v-1h-2q-50 34 -118 42q-43 7 -137 7q-10 -1 -23 -1v-320q0 -122 20 -144q23 -37 89 -37h17q55 0 131 30q48 22 66 64q12 32 12 73q0 29 -15 129v15q0 26 20 26q73 -53 97 -122q15 -44 15 -150q0 -38 52 -101q11 -11 35 -34 q-4 -7 -34 -7h-18h-13q-55 0 -107 45l-12 9h-1q-56 -38 -94 -54q-67 -31 -155 -31h-22q-143 0 -215 81q-22 -37 -61 -53q-34 -10 -65 -10h-21q-86 0 -137 82q-1 1 -1 3z" />
<glyph unicode="f" horiz-adv-x="966" d="M0 188v9q0 2 2 2h4q112 0 134 37q17 29 17 72v62q0 42 1 192q0 111 -35 147q-21 23 -62 34l-12 3v1q31 10 53 28q32 26 42 70q14 30 14 236v12q0 89 -14 107q-8 17 -22 24q-34 18 -121 18l-1 2v4q13 31 56 58q50 30 106 30h2q76 0 115 -56q5 -5 5 -7q64 81 224 81h23 q135 0 254 -71q47 46 103 46q59 -4 64 -14q-69 -64 -69 -119q1 -36 1 -61v-12v-8v-8v-4q0 -104 -76 -153q-23 -21 -53 -21h-3q-10 7 -10 21v5q0 15 24 103q7 35 7 53q0 79 -68 121q-49 27 -121 27q-87 0 -141 -46q-28 -30 -28 -85v-307q71 -1 95 -1q121 0 190 48v-1 q0 -79 -59 -110v-1q24 -9 40 -34q12 -24 12 -73v-2h-1q-44 32 -119 42q-46 6 -120 6h-38q-1 -176 -1 -267v-95q0 -85 23 -104q8 -13 39 -21q34 -9 90 -9h51q1 -1 1 -2v-4q0 -47 -81 -81q-44 -13 -78 -13h-17q-51 0 -105 22q-19 10 -41 34l-12 15q-35 -64 -128 -64 q-85 0 -141 57q-15 19 -15 25z" />
<glyph unicode="g" horiz-adv-x="1000" d="M0 712v1l45 32q32 27 46 47q26 38 31 78q6 91 15 112q17 65 38 109q34 77 97 142q113 107 262 107h22q98 0 183 -78h1q11 35 43 56q36 19 71 22q0 -2 6 -3v-1q-21 -22 -21 -81q0 -61 22 -129q5 -26 5 -45q0 -86 -60 -143q-34 -29 -79 -29q-18 4 -18 16v3q0 10 33 80 q13 38 13 65q0 62 -48 117q-54 41 -143 41q-120 -1 -150 -64q-21 -35 -21 -116q-1 -24 -1 -81q0 -197 82 -244q12 -7 15 -7v-1q-20 0 -47 -23q-33 -38 -42 -103q-8 -56 -8 -125v-16q0 -140 5 -140q7 -43 27 -69q35 -46 104 -46h5q3 0 7 -1q29 4 48 13q43 23 59 71q7 21 7 61 v233q0 96 -38 113q-11 8 -40 13v5q0 33 50 62q28 11 54 11q54 0 101 -45h1q48 41 101 41q67 0 101 -65v-9q0 -1 -22 -6q-53 -21 -53 -105v-370q0 -74 28 -95q-7 -9 -13 -9h-5q-68 0 -111 61q-7 12 -7 15q-47 -48 -68 -57q-24 -17 -78 -34q-61 -14 -98 -14h-32q-52 0 -126 25 q-37 15 -76 41q-27 19 -68 59q-79 94 -111 209q-14 40 -28 156q-12 61 -40 93q-24 30 -76 44z" />
<glyph unicode="h" horiz-adv-x="1126" d="M0 190v7q0 2 2 2q115 0 139 38q16 31 16 68q0 298 -7 322q0 15 -15 59q-18 41 -58 59q-25 10 -27 11v1q36 15 71 47q27 31 32 65q5 35 5 67q-2 126 -2 182v11q0 84 -35 100q-37 18 -120 18l-1 2v1q0 30 50 63q50 26 99 26h3h4h3h2q78 0 124 -61q43 57 112 57 q68 0 110 -53q12 -21 12 -29v-4q0 -3 -25 -6q-47 -12 -62 -33q-16 -24 -16 -90v-295q0 -3 63 -13q41 -4 70 -4q69 0 130 16v313q0 76 -41 92q-40 17 -61 17l-2 3v4q9 24 54 56q39 25 78 25q60 0 102 -56q46 63 123 63h11q59 0 115 -43q25 -24 34 -41v-8l-1 -2 q-106 0 -132 -29q-22 -31 -22 -80q0 -249 22 -288q8 -26 31 -52q28 -25 65 -32v-2q-60 -19 -82 -58q-33 -42 -33 -231q0 -42 -3 -165q0 -68 38 -92q34 -19 116 -19l1 -2v-5q0 -28 -47 -60q-45 -24 -92 -24h-11q-58 0 -108 37q-22 20 -24 25h-1q-44 -58 -110 -58 q-67 0 -112 54q-12 20 -12 27v4q0 3 33 8q32 10 45 20q26 22 26 85v387h-1q-65 -14 -130 -14q-63 0 -132 14v-366q0 -90 26 -105q15 -14 57 -24q20 -2 20 -5v-4q0 -47 -60 -76q-27 -9 -49 -9q-66 0 -125 62q-21 -36 -79 -56q-28 -7 -50 -7h-13q-68 0 -119 40q-24 24 -24 43z " />
<glyph unicode="i" horiz-adv-x="600" d="M0 185v9q0 1 2 2h11q104 0 127 36q17 31 17 63q1 92 1 147v64q0 176 -30 217q-13 24 -49 38v1q37 13 52 40q27 39 27 175v44q0 46 -1 124q-5 68 -41 81q-33 16 -106 16h-8q-2 0 -2 2v6q0 15 28 42q55 42 123 42h12q78 0 122 -60q33 36 61 44q38 16 82 16h5q88 0 132 -59 q10 -18 10 -25v-6q0 -2 -1 -2h-9q-105 0 -129 -31q-20 -23 -20 -101q0 -57 -2 -160q0 -122 29 -153q22 -27 50 -35l-27 -15q-28 -20 -40 -69q-12 -47 -12 -148q2 -122 2 -202q0 -90 29 -108q29 -24 120 -24h8q1 0 2 -2v-11q-3 -21 -27 -44q-47 -38 -116 -38q-83 0 -138 54 q-9 10 -9 12h-1q-21 -39 -82 -59q-28 -8 -51 -8h-16q-73 0 -120 49q-15 23 -15 36z" />
<glyph unicode="j" horiz-adv-x="972" d="M0 118q66 58 66 136q1 10 4 94q5 49 31 89q30 36 54 49q42 25 55 25h5q11 0 13 -13v-1q-18 -83 -18 -123v-6q0 -120 88 -160q40 -18 96 -18h15q94 0 120 122q6 26 6 101v81q0 24 1 50q0 153 -31 185q-15 20 -46 28v2q31 8 46 28q31 33 31 157q-1 130 -1 168q0 91 -30 109 q-34 20 -122 20h-5q-1 0 -1 2v5q15 40 60 66q42 21 89 21q74 0 130 -50l11 -13q15 23 43 41q41 22 86 22h13q56 0 107 -35q30 -22 37 -49v-8q0 -2 -2 -2h-5q-101 0 -126 -28q-21 -20 -21 -106v-63q0 -37 -1 -77q0 -144 32 -176q19 -24 36 -32v-2q-39 -14 -52 -45 q-17 -34 -17 -118q2 -116 2 -179v-11q0 -108 -48 -179q-61 -89 -168 -125q-70 -21 -138 -21h-20q-136 0 -235 89h-1q-73 -59 -119 -59q-5 -1 -12 -1q-50 3 -55 8q-2 0 -3 2z" />
<glyph unicode="k" horiz-adv-x="1075" d="M0 189v8q0 2 2 2q107 0 133 30q22 21 22 109q2 50 2 104q0 242 -60 298q-21 18 -32 20v1q38 12 55 41q15 21 23 58q11 43 11 182v90q0 71 -39 91q-37 16 -116 16l-1 2v2q0 26 41 56q53 32 105 32h14q80 0 123 -61q48 59 129 59h3q76 0 122 -49q16 -21 16 -30v-9 q0 -2 -2 -2q-102 0 -122 -38q-16 -20 -16 -99v-326h1l275 373q14 27 14 48v1q0 35 -48 40q-16 0 -16 3v7q0 20 39 56q36 25 69 25h3q45 0 82 -45h1q34 45 84 45q54 0 87 -52q10 -20 10 -33v-3q0 -2 -2 -2q-88 0 -133 -62q-14 -15 -194 -268q-1 -1 -25 -35q15 -43 39 -68 q32 -29 94 -45q-30 -34 -30 -69v-7q0 -56 81 -230q76 -173 92 -202q23 -37 45 -45q27 -9 65 -9v-2v-10q0 -13 -24 -38q-48 -41 -108 -41q-56 0 -92 43q-25 -23 -62 -33q-47 -16 -81 -16q5 16 5 30v7q0 114 -165 441q-42 78 -45 81l-61 -83v-241q0 -81 18 -100 q20 -38 121 -38l1 -2v-4q-9 -35 -31 -54q-39 -38 -94 -38h-12q-56 0 -109 42q-10 10 -24 27q-47 -69 -145 -69q-75 0 -119 46q-19 25 -19 42z" />
<glyph unicode="l" horiz-adv-x="969" d="M0 192v6q0 1 2 1q110 0 133 32q20 29 20 71q0 317 -15 343q-4 31 -29 64q-29 26 -54 32q-15 4 -17 4v2q36 10 66 37q26 24 39 82q10 51 10 180v79q0 74 -36 91q-32 17 -117 17q-2 0 -2 2v5q20 43 81 70q37 15 72 15h11q50 0 95 -33q18 -20 22 -28q47 60 130 60 q66 0 121 -39q27 -23 35 -41q2 -6 2 -8v-1q0 -2 -2 -2q-109 0 -134 -29q-19 -26 -19 -47q-3 0 -5 -208q0 -106 25 -143q14 -23 54 -55v-1q-19 -1 -45 -24q-21 -25 -28 -71q-4 -24 -4 -97v-192q0 -130 31 -143q26 -24 70 -24v-2q20 -1 29 -1h1q144 0 191 90q19 38 19 81v3 q0 1 1 1l-1 2v11q0 49 -25 127q0 16 19 18q74 -53 96 -121q15 -42 15 -147q0 -37 51 -99q11 -12 35 -34q-5 -7 -34 -7q0 -1 -18 -1h-12q-55 0 -106 45l-13 9q-55 -37 -92 -54q-67 -30 -154 -30h-21q-95 0 -163 37q-9 6 -38 31q-10 13 -11 13q-22 -37 -60 -53 q-33 -10 -64 -10h-21q-85 0 -135 81q-1 1 -1 3z" />
<glyph unicode="m" horiz-adv-x="1400" d="M0 196h2q107 0 134 30q14 18 18 40q5 16 5 123v100q0 176 -49 220q-20 23 -58 33q29 16 50 34q29 30 37 60q18 40 18 262q1 7 1 39q0 71 -41 91q-38 15 -105 15h-10q-2 0 -2 2v10q10 33 47 56q40 22 80 22h14q56 0 103 -46q0 -2 9 -12h1q37 59 114 59q71 0 122 -54 q14 -20 14 -31q0 -6 -2 -6h-8q-53 0 -65 -16v-4q0 -13 34 -98q212 -555 217 -569h1q250 613 256 629q5 15 5 24q0 27 -81 33q-18 1 -40 1h-16q-2 0 -2 2v8q0 33 56 62q44 19 92 19h7q84 0 133 -59q21 35 76 52q24 7 45 7h15q62 0 118 -38q30 -27 32 -42v-9q0 -2 -2 -2h-9 q-105 0 -128 -32q-13 -13 -19 -55q0 -5 -1 -13v-168v-2q0 -135 35 -175q25 -33 54 -47v-2q-21 -6 -48 -32q-28 -35 -36 -90q-5 -49 -5 -119v-9v-200q0 -29 15 -60q11 -21 45 -32q36 -11 98 -11l1 -1q0 -67 -88 -91q-26 -5 -40 -5h-16q-70 0 -124 46l-19 22q-49 -67 -137 -67 q-83 0 -138 65q-14 19 -14 26q0 5 2 5h1q113 0 138 35q19 28 19 78v502h-1q-15 -37 -96 -201q-95 -202 -95 -294q0 -22 12 -49h-1q-81 0 -126 78q-12 -22 -25 -36q-37 -38 -102 -38v1q7 21 7 46q0 110 -143 396q-30 63 -39 87h-1v-465q0 -91 20 -109q0 -8 32 -20 q34 -11 100 -11q1 -5 1 -6q0 -45 -70 -76q-30 -11 -54 -11h-16q-50 0 -95 43l-17 21q-46 -64 -116 -64q-65 0 -117 56q-19 29 -19 37z" />
<glyph unicode="n" d="M0 179v22q0 2 2 2h5q106 0 132 34q21 32 21 85q1 131 1 183q0 158 -66 206q-17 19 -57 27q-1 0 -1 2q50 13 79 41q24 23 34 68q8 35 8 152v46q0 11 -1 17q1 7 1 18v52q0 83 -43 100q-40 14 -103 14h-10q-1 0 -2 3v8q15 35 66 64q38 17 70 17h4q67 0 113 -60q25 40 74 57 q45 10 101 10h18q2 -1 2 -5v-4q0 -58 28 -130q76 -241 156 -410q66 -139 104 -236v-1h1v582q0 78 -32 98q-35 20 -123 20l-1 1v14q23 40 87 60q31 8 52 8q71 0 114 -53q44 50 119 50q69 0 113 -41q18 -20 20 -30v-4q-3 -5 -6 -5q-102 0 -126 -29q-20 -27 -20 -54 q-2 -7 -2 -81v-56v-45q0 -141 17 -172q7 -21 33 -45q17 -16 57 -33l12 -5q0 -1 -30 -15q-48 -28 -68 -87q-19 -42 -19 -182v-40q-1 -50 -1 -117q0 -115 13 -184l-2 -1q-84 0 -125 37q-15 12 -36 33q-54 -70 -165 -70l-1 2v52q0 104 -29 166q-54 129 -230 541l-6 15h-1v-556 q0 -92 27 -109q28 -23 118 -23h6q2 -1 2 -2v-16q-14 -43 -57 -68q-27 -12 -50 -12h-12q-38 0 -85 21q-25 15 -48 47h-1q-25 -40 -75 -57q-16 -2 -32 -2q-67 0 -131 49q-13 13 -13 16z" />
<glyph unicode="o" horiz-adv-x="1026" d="M0 761q70 50 90 113q8 26 23 111q24 91 53 148q23 46 62 97q52 58 78 72q34 24 64 36q67 26 126 26h27q84 0 167 -46q34 -21 75 -58q56 -61 77 -106q27 -46 53 -124q14 -43 32 -160q12 -46 26 -71q20 -35 57 -50v-1q-22 -8 -38 -29q-24 -24 -38 -84q-9 -38 -23 -152 q-18 -77 -40 -129q-34 -86 -101 -158q-55 -53 -95 -71q-77 -38 -152 -38h-27q-84 0 -166 45q-32 19 -72 56q-49 52 -60 74q-42 61 -70 150q-17 48 -37 170q-17 72 -36 112q-13 28 -42 57q-1 0 -13 10zM367 533q3 -202 8 -202q0 -16 15 -60q28 -61 120 -61q93 0 120 65 q19 43 19 178q1 62 1 96q0 174 -50 212l-8 3v2q61 68 61 160v12q-5 154 -9 179q-1 28 -21 72q-31 52 -114 52q-95 0 -121 -66q-20 -36 -20 -204q-1 -10 -1 -28q0 -142 57 -173q8 -4 8 -5q-30 -30 -39 -56q-26 -59 -26 -176z" />
<glyph unicode="p" horiz-adv-x="1069" d="M0 190v8q0 2 2 2q112 0 137 34q19 28 19 93q0 35 1 178q0 176 -50 222q-18 22 -58 32h-1v2q34 12 63 39q25 28 35 72q11 36 11 205v37q0 89 -27 106q-29 25 -119 25h-11q-2 0 -2 2v15q12 27 55 57q40 21 89 21q100 0 133 -51l10 -13q92 82 260 82h21q204 0 305 -110 q18 -20 51 -100q25 -55 47 -79q25 -33 77 -48h4v-2q-40 -11 -63 -37q-28 -28 -43 -59q-24 -46 -60 -120q-45 -80 -156 -122q-79 -26 -156 -26h-17q-42 0 -139 10v-326q0 -80 18 -100q10 -19 42 -28q36 -11 100 -11l1 -2v-10q-13 -37 -52 -60q-38 -22 -84 -22h-12 q-75 0 -133 52q-11 11 -11 13q-48 -64 -143 -64q-68 0 -114 39q-26 27 -30 44zM418 804q0 -3 60 -8q4 0 18 -1q134 0 167 67q19 35 19 99v119q0 117 -83 154q-30 11 -55 11h-14q-80 0 -103 -60q-9 -18 -9 -67v-314z" />
<glyph unicode="q" horiz-adv-x="1026" d="M0 757q70 49 89 112q8 26 21 105q25 94 54 151q23 46 62 96q41 45 69 65q41 28 72 40q64 25 121 25h27q83 0 165 -46q34 -20 74 -57q52 -57 73 -98q24 -41 47 -105q21 -61 32 -135q10 -60 22 -94q8 -24 36 -52q16 -13 31 -19v-1q-31 -12 -50 -46q-11 -15 -21 -53 q-12 -43 -25 -159q-19 -80 -42 -135q-23 -52 -58 -104q-47 -61 -92 -91q53 -60 77 -77q26 -15 42 -15h5q22 0 50 17q3 0 5 -8q-8 -39 -28 -59q-23 -19 -58 -19q-21 0 -53 7q6 -20 6 -37v-4q0 -66 -74 -112q-3 1 -4 4q4 27 4 46v11q0 122 -141 178q-16 5 -21 5h-6q-6 0 -9 -1 q-151 0 -255 107q-43 47 -66 89q-23 38 -46 98q-25 72 -37 151q-17 89 -35 134q-19 45 -47 73zM362 532q2 -203 9 -208q2 -23 18 -60q7 -14 29 -30q53 61 113 61h3q42 0 82 -27q24 38 24 187q1 63 1 93q0 167 -47 205q-8 7 -10 7v1q59 68 59 158v13q-4 151 -9 175 q-1 28 -20 72q-31 51 -113 51q-93 0 -118 -66q-20 -35 -20 -200q-1 -10 -1 -28q0 -140 56 -171l8 -4q-29 -29 -38 -53q-26 -60 -26 -176z" />
<glyph unicode="r" horiz-adv-x="1072" d="M0 186v9l1 2q108 0 134 31q22 21 22 96q1 0 2 214v9v12v4q0 153 -39 186q-19 17 -38 22v2q40 12 57 40q20 36 20 122v4v8v8q0 224 -7 224q-4 23 -25 42q-34 22 -126 22l-1 1v11q8 26 37 45q48 31 112 31q82 0 136 -58q25 29 54 41q87 41 208 41h21q201 0 298 -121 q32 -38 51 -117q17 -51 47 -70l9 -4v-1q-34 -18 -58 -77q-27 -69 -41 -94q-49 -63 -137 -92v-1q48 -10 82 -23q38 -14 73 -48q39 -42 39 -114v-266q0 -88 34 -111q26 -19 90 -19l1 -2v-11q-17 -29 -52 -50q-38 -23 -80 -23q-62 0 -111 57q-32 -44 -89 -62q-27 -7 -47 -7 l-1 2v460q0 97 -34 113q-19 21 -158 21h-68v-389q0 -70 38 -91q36 -18 121 -18l1 -2v-8q-17 -41 -63 -67q-42 -21 -87 -21q-86 0 -142 69q-45 -69 -126 -69q-79 0 -145 69q-13 14 -13 18zM416 821h72q142 0 166 70q16 37 16 86v120q0 103 -64 132q-29 14 -74 14 q-77 0 -99 -39q-17 -29 -17 -79v-304z" />
<glyph unicode="s" horiz-adv-x="926" d="M0 123v6q0 1 19 18q55 67 55 128q-6 33 -6 63q0 128 80 169q19 13 45 15q28 0 28 -20q0 -8 -17 -50q-8 -25 -9 -38q0 -71 47 -133q40 -42 65 -52q59 -32 122 -32h1q82 0 113 18q23 8 59 44q35 44 35 95v12q0 67 -74 139q-26 19 -55 19h-4q-45 0 -113 -37h-1q4 29 5 54 q0 108 -103 161q-17 10 -74 40q-28 15 -72 57q-92 94 -92 229q0 151 139 261q115 78 251 78h16q130 0 256 -92q65 58 129 58q48 -3 52 -10v-5q-45 -42 -53 -67q-14 -29 -14 -58q0 -12 14 -69q1 -16 1 -28q0 -104 -88 -155q-23 -11 -40 -11q-21 0 -21 20q0 14 21 63 q7 21 7 37v7q0 55 -56 114q-39 32 -70 45q-63 26 -109 26h-16q-107 0 -139 -78q-13 -36 -13 -76q0 -90 101 -160q87 -65 104 -66q28 -11 66 -11h7q62 0 108 34h1v-1q-9 -32 -9 -61v-2q0 -82 77 -139q53 -51 66 -81q31 -55 31 -159v-10q0 -185 -149 -292q-100 -67 -242 -67 h-17q-139 0 -247 82q-12 7 -32 22q-41 -32 -60 -46q-31 -18 -64 -18h-15q-43 0 -47 10z" />
<glyph unicode="t" horiz-adv-x="1200" d="M0 1323v1q17 13 48 13h6q50 0 103 -41q0 -1 3 -1q108 67 210 67h11q99 0 203 -68h1q103 68 200 68h16q99 0 207 -67h1q54 42 104 42h7q33 0 49 -14q-81 -73 -81 -120q6 -96 6 -110q0 -123 -103 -158h-2q-16 0 -16 9v1q20 61 20 109v3q0 139 -113 184q-35 12 -74 12h-3 q-62 0 -77 -50q-11 -25 -11 -146q0 -43 -2 -85q0 -144 23 -173q11 -21 44 -41q-41 -34 -54 -80q-13 -50 -13 -149q2 -124 2 -213q0 -82 40 -100q36 -18 113 -18l1 -1v-9q-17 -44 -63 -70q-38 -19 -75 -19h-12q-72 0 -129 60q0 2 -7 10h-1q-48 -67 -132 -67h-1q-83 0 -146 70 q-3 3 -11 14v11q0 1 2 1q112 0 138 33q21 21 21 106v88q0 38 1 79q0 172 -32 213q-19 28 -49 40v2q42 17 61 52q20 40 20 140q0 229 -7 229q0 18 -18 48q-21 25 -66 25q-129 0 -173 -110q-15 -40 -15 -86v-2q0 -50 20 -110v-2q0 -8 -16 -8h-1q-28 5 -61 36q-43 44 -43 124 q0 12 6 108v1q0 45 -80 119z" />
<glyph unicode="u" horiz-adv-x="1029" d="M0 1245v5q16 42 62 68q37 16 64 16h16q59 0 109 -40q16 -16 16 -19h1q41 57 121 57q78 0 123 -65q6 -9 10 -19v-3q0 -2 -2 -2h-3q-92 0 -110 -45q-11 -25 -11 -62q0 -69 -1 -177q0 -150 26 -181q6 -9 16 -17v-1q-27 -29 -32 -63q-10 -41 -10 -133q0 -25 1 -199 q0 -80 48 -123q38 -30 106 -30q147 0 147 162q0 32 1 204q0 144 -25 172l-11 11q19 14 27 46q9 34 9 119q0 38 -1 211q0 69 -37 91q-28 15 -82 15h-3q-2 0 -2 2v4q15 42 59 67q29 15 58 15h2q57 0 101 -56q43 51 103 51h3q61 0 101 -49q9 -17 9 -27v-5q0 -2 -1 -2h-3 q-76 0 -98 -34q-17 -26 -17 -71v-165q0 -134 24 -176q8 -16 28 -36q-30 -19 -41 -50q-11 -34 -11 -102v-77v-85q0 -206 -121 -298q-92 -62 -245 -62h-22q-250 1 -320 154q-42 81 -42 202v146q0 127 -24 153q-12 15 -24 18v1q23 13 34 48q14 36 14 171v138q0 93 -36 108 q-31 17 -99 17h-3q-2 0 -2 2z" />
<glyph unicode="v" horiz-adv-x="1064" d="M0 1239v7q7 17 46 48q40 28 84 28h4q62 0 126 -54h1q55 62 124 62h11q68 0 117 -62q9 -16 13 -28v-1q0 -2 -2 -2h-16q-88 0 -99 -17q-17 -14 -17 -34v-3q0 -29 33 -152q8 -35 131 -530h1l125 522q43 166 43 181q0 25 -43 31q-9 1 -16 1h-6q-1 0 -2 3v7q0 21 38 51 q35 24 68 24q50 0 81 -53h1q35 53 91 53t93 -53q11 -18 11 -25v-4q-1 -3 -7 -3h-4q-101 0 -128 -60q-13 -26 -40 -135q-52 -178 -52 -231q0 -38 21 -61q-30 -11 -53 -60q-31 -67 -88 -292q-30 -104 -30 -129v-14q0 -35 40 -48q35 -12 79 -12h27q1 0 1 -1v-10q-4 -22 -31 -47 q-47 -37 -106 -37h-13q-71 0 -126 53l-12 13q-20 -39 -77 -59q-25 -7 -44 -7h-13q-75 0 -139 63l-12 16v15q0 1 1 1h17q93 0 115 37q12 16 12 39q0 28 -17 85q-60 238 -96 326q-18 36 -33 51q-13 13 -31 17v1q27 30 27 71v2q0 53 -51 222q-31 116 -41 137q-6 15 -26 33 q-32 21 -96 21h-6q-9 0 -9 3z" />
<glyph unicode="w" horiz-adv-x="1633" d="M0 1250v5q21 47 80 70q26 8 49 8h4q66 0 128 -54h1q66 57 132 57h10q69 0 119 -65q9 -13 9 -16v-5q0 -2 -2 -2h-33q-72 0 -87 -20q-14 -14 -14 -32v-3q0 -25 27 -129q19 -75 139 -561h1l135 513q46 164 51 190q5 25 5 57q0 34 -20 83l2 1q50 -6 99 -39q18 -13 35 -29 q34 38 63 50q34 16 59 18v-1q-15 -83 -15 -99q0 -42 13 -85q134 -656 134 -658h1l168 710q0 26 -43 32q-25 1 -25 4v10q0 30 45 56q26 12 48 12h8q49 0 86 -49q40 50 90 50h10q46 0 85 -40q14 -16 16 -27v-12q0 -2 -2 -2q-110 0 -135 -50q-14 -20 -36 -112 q-52 -182 -52 -249q0 -47 37 -82v-1q-62 -28 -98 -112q-29 -72 -77 -270q-22 -76 -22 -117v-1q0 -40 59 -55q26 -6 56 -6l1 -1v-8q-59 -79 -137 -79h-4q-65 0 -118 59q-44 -54 -100 -54h-12q-54 0 -97 43q-18 21 -18 40q32 3 46 11q43 26 43 59v6q0 27 -16 82 q-113 495 -119 519l-138 -559q-7 -31 -7 -57q0 -61 87 -61q1 -1 1 -2q0 -28 -38 -63q-40 -28 -86 -28q-68 0 -101 55q-4 8 -4 9q-30 -42 -75 -58q-26 -7 -45 -7h-12q-59 0 -104 43q-23 28 -25 49v1q1 1 2 1h9q79 0 103 45q6 15 6 29v4q0 20 -17 77q-48 192 -77 278 q-34 85 -81 113q-5 5 -23 16q39 36 39 86q0 58 -54 243q-24 90 -35 114q-19 31 -55 41q-38 9 -81 9z" />
<glyph unicode="x" horiz-adv-x="1026" d="M0 175v12q0 2 2 2q115 0 156 106q162 341 171 365q4 15 4 24v5q0 33 -47 50v1q37 30 37 59v3q0 26 -33 86q-131 265 -143 284q-32 44 -62 53q-31 11 -79 11h-4q-2 0 -2 2v6q0 28 51 60q45 22 86 22q77 0 119 -58h1q18 31 64 48q23 6 39 6q63 0 110 -47q19 -21 22 -33v-4 q0 -2 -2 -2h-60q-40 0 -40 -26q0 -14 33 -76l95 -190q2 1 108 238q7 26 7 29q0 21 -42 25h-10q-2 0 -2 3q0 53 69 80q22 5 36 5q51 0 91 -43q40 45 87 45h10q47 0 84 -46q17 -26 17 -35v-7q0 -2 -2 -2h-5q-116 0 -162 -78q-19 -25 -58 -120q-81 -181 -88 -201q-2 -9 -3 -25 q0 -53 51 -72v-1q-45 -26 -45 -73q0 -23 27 -69q167 -342 175 -351q34 -57 138 -57h1q2 0 2 -2v-11q0 -16 -30 -45q-46 -32 -94 -32h-11q-68 0 -104 57q-2 2 -2 4q-36 -56 -108 -56q-56 0 -102 41q-17 19 -19 30v12q0 2 25 5q27 7 37 21q7 9 7 23q0 21 -37 89l-105 221 q-5 -8 -125 -281q-12 -29 -12 -47q0 -23 34 -27q18 -2 44 -2h5q2 0 2 -2v-12q0 -26 -39 -53q-34 -21 -71 -21q-64 0 -93 59q-3 -10 -31 -35q-33 -24 -67 -24h-9q-54 0 -89 45q-10 18 -10 29z" />
<glyph unicode="y" horiz-adv-x="1000" d="M0 1252v6q10 27 46 51q43 26 92 26h4q66 0 117 -54q49 60 112 60h9q68 0 121 -65q0 -2 9 -15v-9q0 -2 -1 -2h-31q-65 0 -80 -28v-6q0 -20 35 -86q95 -196 101 -211h2q129 243 143 271q7 17 7 28v2q0 21 -29 27q-14 3 -26 3h-28q-1 0 -1 2q0 60 75 84q15 5 33 5h4 q56 0 92 -50q9 16 32 30q26 13 53 13q55 0 88 -60q5 -6 7 -15v-7q0 -2 -2 -2h-2q-102 0 -143 -85q-159 -286 -159 -293q-5 -17 -5 -33q0 -40 35 -76q0 -2 -15 -6q-71 -36 -71 -154v-285q0 -73 38 -93q35 -18 104 -18h4q9 0 9 -2v-10q-6 -12 -47 -51q-54 -39 -103 -39h-12 q-64 0 -122 70q0 3 -2 3h-1q-49 -73 -124 -73q-87 0 -161 92v8q0 2 9 2h5q106 0 128 38q17 22 17 94v237q0 117 -35 153q-12 21 -48 32q-2 0 -2 2q29 22 29 53v5q0 35 -49 123q-72 150 -128 242q-35 47 -73 58q-25 6 -54 6h-4q-2 0 -2 2z" />
<glyph unicode="z" horiz-adv-x="875" d="M0 118q171 339 222 458q45 106 45 167q0 36 -21 66v2h10q75 0 125 85q27 38 129 257q5 9 28 58q-59 22 -111 22q-136 0 -191 -66q-37 -43 -37 -138v-82q0 -15 -14 -19h-13q-80 50 -80 150q0 3 4 70q0 66 -54 136l-20 19v1q12 12 53 12h5q62 0 121 -55q86 81 216 81h14 q51 0 322 -38q7 0 15 -1q28 0 89 16v-1q-158 -304 -222 -443q-33 -78 -33 -117q0 -37 32 -74v-1h-6q-83 0 -152 -126q-42 -72 -164 -322q119 -24 186 -24q0 -1 9 -1q131 0 168 114q9 31 9 66q0 51 -22 117q3 25 20 25h3q61 -26 87 -82q9 -28 9 -52v-12q0 -14 -11 -96 q0 -6 -1 -9q4 -53 12 -69q11 -26 42 -57l13 -12v-1q0 -5 -61 -11q-38 0 -88 35q-105 -63 -198 -63h-11q-42 0 -246 32q-52 7 -75 7q-63 0 -156 -25q0 1 -1 1z" />
<glyph unicode="&#xad;" horiz-adv-x="738" d="M84 777q0 18 21 26h6q19 0 26 -22v-2l170 13q0 1 64 158q-16 7 -16 25q0 19 23 25h8q22 -5 22 -27q0 -15 -16 -23q64 -157 64 -158l170 -13q0 16 21 24h7q17 0 25 -20v-8q0 -18 -22 -24h-5q-11 0 -19 9q-2 -1 -130 -111q40 -164 40 -165h1h7q17 0 24 -19q1 -4 1 -6v-1 q0 -20 -22 -26q-3 -1 -4 -1q-19 0 -27 21v7q0 4 4 14h-1l-144 89q-137 -85 -145 -91q4 -6 4 -13q0 -19 -21 -26l-6 -1q-26 4 -26 27v1q0 17 20 25h4h7h1l41 166l-130 110q-1 0 -1 -1q-8 -8 -17 -8h-4q-17 0 -24 20z" />
<glyph unicode="&#x2000;" horiz-adv-x="736" />
<glyph unicode="&#x2001;" horiz-adv-x="1473" />
<glyph unicode="&#x2002;" horiz-adv-x="736" />
<glyph unicode="&#x2003;" horiz-adv-x="1473" />
<glyph unicode="&#x2004;" horiz-adv-x="491" />
<glyph unicode="&#x2005;" horiz-adv-x="368" />
<glyph unicode="&#x2006;" horiz-adv-x="245" />
<glyph unicode="&#x2007;" horiz-adv-x="245" />
<glyph unicode="&#x2008;" horiz-adv-x="184" />
<glyph unicode="&#x2009;" horiz-adv-x="294" />
<glyph unicode="&#x200a;" horiz-adv-x="81" />
<glyph unicode="&#x2010;" horiz-adv-x="738" d="M84 777q0 18 21 26h6q19 0 26 -22v-2l170 13q0 1 64 158q-16 7 -16 25q0 19 23 25h8q22 -5 22 -27q0 -15 -16 -23q64 -157 64 -158l170 -13q0 16 21 24h7q17 0 25 -20v-8q0 -18 -22 -24h-5q-11 0 -19 9q-2 -1 -130 -111q40 -164 40 -165h1h7q17 0 24 -19q1 -4 1 -6v-1 q0 -20 -22 -26q-3 -1 -4 -1q-19 0 -27 21v7q0 4 4 14h-1l-144 89q-137 -85 -145 -91q4 -6 4 -13q0 -19 -21 -26l-6 -1q-26 4 -26 27v1q0 17 20 25h4h7h1l41 166l-130 110q-1 0 -1 -1q-8 -8 -17 -8h-4q-17 0 -24 20z" />
<glyph unicode="&#x2011;" horiz-adv-x="738" d="M84 777q0 18 21 26h6q19 0 26 -22v-2l170 13q0 1 64 158q-16 7 -16 25q0 19 23 25h8q22 -5 22 -27q0 -15 -16 -23q64 -157 64 -158l170 -13q0 16 21 24h7q17 0 25 -20v-8q0 -18 -22 -24h-5q-11 0 -19 9q-2 -1 -130 -111q40 -164 40 -165h1h7q17 0 24 -19q1 -4 1 -6v-1 q0 -20 -22 -26q-3 -1 -4 -1q-19 0 -27 21v7q0 4 4 14h-1l-144 89q-137 -85 -145 -91q4 -6 4 -13q0 -19 -21 -26l-6 -1q-26 4 -26 27v1q0 17 20 25h4h7h1l41 166l-130 110q-1 0 -1 -1q-8 -8 -17 -8h-4q-17 0 -24 20z" />
<glyph unicode="&#x2012;" horiz-adv-x="738" d="M84 777q0 18 21 26h6q19 0 26 -22v-2l170 13q0 1 64 158q-16 7 -16 25q0 19 23 25h8q22 -5 22 -27q0 -15 -16 -23q64 -157 64 -158l170 -13q0 16 21 24h7q17 0 25 -20v-8q0 -18 -22 -24h-5q-11 0 -19 9q-2 -1 -130 -111q40 -164 40 -165h1h7q17 0 24 -19q1 -4 1 -6v-1 q0 -20 -22 -26q-3 -1 -4 -1q-19 0 -27 21v7q0 4 4 14h-1l-144 89q-137 -85 -145 -91q4 -6 4 -13q0 -19 -21 -26l-6 -1q-26 4 -26 27v1q0 17 20 25h4h7h1l41 166l-130 110q-1 0 -1 -1q-8 -8 -17 -8h-4q-17 0 -24 20z" />
<glyph unicode="&#x2013;" horiz-adv-x="1167" d="M84 777q0 18 36 26h10q33 0 45 -22v-2l293 13q0 1 110 158q-28 7 -28 25q0 19 40 25h14q38 -5 38 -27q0 -15 -28 -23q110 -157 110 -158l293 -13q0 16 36 24h12q29 0 43 -20v-8q0 -18 -38 -24h-8q-19 0 -33 9q-4 -1 -224 -111q69 -164 69 -165h2h12q29 0 41 -19 q2 -4 2 -6v-1q0 -20 -38 -26q-5 -1 -7 -1q-33 0 -46 21v7q0 4 6 14h-1l-248 89q-236 -85 -250 -91q7 -6 7 -13q0 -19 -36 -26l-10 -1q-45 4 -45 27v1q0 17 34 25h7h12h2l71 166l-224 110q-2 0 -2 -1q-14 -8 -29 -8h-7q-29 0 -41 20z" />
<glyph unicode="&#x2014;" horiz-adv-x="2191" d="M84 777q0 18 72 26h21q65 0 89 -22v-2l586 13q0 1 220 158q-55 7 -55 25q0 19 79 25h27q76 -5 76 -27q0 -15 -55 -23q220 -157 220 -158l586 -13q0 16 72 24h24q58 0 86 -20v-8q0 -18 -76 -24h-17q-38 0 -65 9q-7 -1 -448 -111q138 -164 138 -165h3h24q59 0 83 -19 q3 -4 3 -6v-1q0 -20 -75 -26q-11 -1 -14 -1q-65 0 -93 21v7q0 4 14 14h-4l-495 89q-472 -85 -499 -91q13 -6 13 -13q0 -19 -72 -26l-21 -1q-89 4 -89 27v1q0 17 69 25h14h24h3l141 166l-447 110q-4 0 -4 -1q-27 -8 -58 -8h-14q-58 0 -83 20z" />
<glyph unicode="&#x202f;" horiz-adv-x="294" />
<glyph unicode="&#x205f;" horiz-adv-x="368" />
<glyph unicode="&#xe000;" horiz-adv-x="1325" d="M0 0v1325h1325v-1325h-1325z" />
</font>
</defs>
</svg>
